G04 #@! TF.FileFunction,Copper,L1,Top,Signal*
%FSLAX46Y46*%
G04 Gerber Fmt 4.6, Leading zero omitted, Abs format (unit mm)*
G04 Created by KiCad (PCBNEW 4.0.2-4+6225~38~ubuntu14.04.1-stable) date Sat 05 Mar 2016 02:02:49 PM PST*
%MOMM*%
G01*
G04 APERTURE LIST*
%ADD10C,0.100000*%
%ADD11R,1.400000X1.600000*%
%ADD12R,0.400000X1.350000*%
%ADD13R,1.900000X1.900000*%
%ADD14C,1.600000*%
%ADD15R,2.000000X1.600000*%
%ADD16R,1.198880X1.198880*%
%ADD17R,1.500000X1.300000*%
%ADD18R,1.300000X1.500000*%
%ADD19R,1.400000X0.300000*%
%ADD20R,2.032000X2.032000*%
%ADD21O,2.032000X2.032000*%
%ADD22R,1.500000X1.500000*%
%ADD23O,1.500000X1.500000*%
%ADD24C,1.998980*%
%ADD25C,0.685800*%
%ADD26C,0.254000*%
%ADD27C,0.609600*%
G04 APERTURE END LIST*
D10*
D11*
X138786000Y-83476000D03*
D12*
X143286900Y-83701000D03*
X142636900Y-83701000D03*
X141986000Y-83701000D03*
X141336900Y-83701000D03*
X140686900Y-83701000D03*
D11*
X145186000Y-83476000D03*
D13*
X140786000Y-81026000D03*
X143186000Y-81026000D03*
D14*
X138686000Y-81026000D03*
X145286000Y-81026000D03*
D15*
X145574000Y-87630000D03*
X149574000Y-87630000D03*
X169894000Y-87630000D03*
X165894000Y-87630000D03*
D16*
X174150020Y-98425000D03*
X172051980Y-98425000D03*
X139920980Y-96520000D03*
X142019020Y-96520000D03*
X139920980Y-93980000D03*
X142019020Y-93980000D03*
D17*
X147400000Y-93980000D03*
X144700000Y-93980000D03*
X147400000Y-96520000D03*
X144700000Y-96520000D03*
D18*
X168910000Y-95678000D03*
X168910000Y-98378000D03*
X166624000Y-95678000D03*
X166624000Y-98378000D03*
D17*
X160067000Y-94996000D03*
X162767000Y-94996000D03*
D18*
X138430000Y-89869000D03*
X138430000Y-87169000D03*
X140970000Y-89869000D03*
X140970000Y-87169000D03*
X143256000Y-89869000D03*
X143256000Y-87169000D03*
D19*
X155153000Y-91075000D03*
X155153000Y-91575000D03*
X155153000Y-92075000D03*
X155153000Y-92575000D03*
X155153000Y-93075000D03*
X159553000Y-93075000D03*
X159553000Y-92575000D03*
X159553000Y-92075000D03*
X159553000Y-91575000D03*
X159553000Y-91075000D03*
D20*
X162433000Y-97917000D03*
D21*
X159893000Y-97917000D03*
D22*
X168813900Y-80907000D03*
D23*
X166813900Y-80907000D03*
D24*
X163073500Y-85809200D03*
X170257705Y-92993405D03*
D25*
X157480000Y-98044000D03*
X155448000Y-98044000D03*
X153416000Y-98044000D03*
X150876000Y-98044000D03*
X150876000Y-96012000D03*
X153416000Y-96012000D03*
X153416000Y-94488000D03*
X155448000Y-94488000D03*
X157480000Y-89916000D03*
X157480000Y-91440000D03*
X157480000Y-92964000D03*
X155448000Y-96012000D03*
X157480000Y-96012000D03*
X157480000Y-94488000D03*
X166116000Y-85344000D03*
X163530700Y-88120600D03*
X164673700Y-84005800D03*
X163576000Y-81280000D03*
X161544000Y-81280000D03*
X161544000Y-83312000D03*
X160863700Y-84742400D03*
X161016100Y-87892000D03*
X159512000Y-87376000D03*
X159512000Y-85344000D03*
X159512000Y-83312000D03*
X159512000Y-81280000D03*
X157480000Y-81280000D03*
X157480000Y-83312000D03*
X157480000Y-85344000D03*
X157480000Y-87376000D03*
X155448000Y-87376000D03*
X152400000Y-86868000D03*
X155448000Y-85344000D03*
X155448000Y-83312000D03*
X155448000Y-81280000D03*
X153416000Y-81280000D03*
X153416000Y-83312000D03*
X153416000Y-85344000D03*
X151384000Y-85344000D03*
X151384000Y-83312000D03*
X151384000Y-81280000D03*
X149352000Y-81280000D03*
X149352000Y-83312000D03*
X149352000Y-85344000D03*
X153416000Y-91440000D03*
X146304000Y-89916000D03*
X147320000Y-91440000D03*
X148844000Y-89916000D03*
X150368000Y-91440000D03*
X151892000Y-89916000D03*
X172212000Y-90424000D03*
X170180000Y-90424000D03*
X167640000Y-90424000D03*
X165100000Y-90424000D03*
X162560000Y-90424000D03*
X169672000Y-84836000D03*
X171704000Y-84836000D03*
X171704000Y-82296000D03*
X171704000Y-80264000D03*
X174244000Y-80264000D03*
X174244000Y-82296000D03*
X174244000Y-84836000D03*
X174244000Y-86868000D03*
X172212000Y-86868000D03*
X172212000Y-88900000D03*
X174244000Y-88900000D03*
X174244000Y-90424000D03*
X160528000Y-90424000D03*
D26*
X155153000Y-93075000D02*
X155153000Y-93154100D01*
X155153000Y-93154100D02*
X155448000Y-93449100D01*
X155448000Y-93449100D02*
X155448000Y-94488000D01*
X155153000Y-93075000D02*
X155153000Y-94193000D01*
X155153000Y-94193000D02*
X155448000Y-94488000D01*
X155153000Y-93075000D02*
X157369000Y-93075000D01*
X157369000Y-93075000D02*
X157480000Y-92964000D01*
X159893000Y-97917000D02*
X157607000Y-97917000D01*
X157607000Y-97917000D02*
X157480000Y-98044000D01*
X155448000Y-98044000D02*
X153416000Y-98044000D01*
X150876000Y-98044000D02*
X150876000Y-96012000D01*
X153416000Y-96012000D02*
X153416000Y-94488000D01*
X157480000Y-89916000D02*
X157480000Y-88392000D01*
X157480000Y-92964000D02*
X157480000Y-91440000D01*
X155448000Y-94488000D02*
X155448000Y-96012000D01*
X157480000Y-96012000D02*
X157480000Y-94488000D01*
X165894000Y-87630000D02*
X165894000Y-85566000D01*
X165894000Y-85566000D02*
X166116000Y-85344000D01*
X149574000Y-87630000D02*
X149574000Y-85566000D01*
X164673700Y-84005800D02*
X163576000Y-85344000D01*
X161544000Y-81280000D02*
X163576000Y-81280000D01*
X160863700Y-84742400D02*
X161544000Y-83312000D01*
X159512000Y-87376000D02*
X161016100Y-87892000D01*
X159512000Y-83312000D02*
X159512000Y-85344000D01*
X157480000Y-81280000D02*
X159512000Y-81280000D01*
X157480000Y-85344000D02*
X157480000Y-83312000D01*
X155448000Y-87376000D02*
X157480000Y-87376000D01*
X153924000Y-86868000D02*
X152400000Y-86868000D01*
X155448000Y-85344000D02*
X153924000Y-86868000D01*
X155448000Y-81280000D02*
X155448000Y-83312000D01*
X153416000Y-83312000D02*
X153416000Y-81280000D01*
X151384000Y-85344000D02*
X153416000Y-85344000D01*
X151384000Y-81280000D02*
X151384000Y-83312000D01*
X149352000Y-83312000D02*
X149352000Y-81280000D01*
X149574000Y-85566000D02*
X149352000Y-85344000D01*
X140686900Y-83701000D02*
X140686900Y-81125100D01*
X140686900Y-81125100D02*
X140786000Y-81026000D01*
D27*
X145186000Y-83476000D02*
X145186000Y-83026000D01*
X145186000Y-83026000D02*
X143186000Y-81026000D01*
X143186000Y-81026000D02*
X141236000Y-81026000D01*
X141236000Y-81026000D02*
X138786000Y-83476000D01*
X148463000Y-83947000D02*
X145657000Y-83947000D01*
X145657000Y-83947000D02*
X145186000Y-83476000D01*
D26*
X172051980Y-98425000D02*
X168957000Y-98425000D01*
X168957000Y-98425000D02*
X168910000Y-98378000D01*
X144700000Y-96520000D02*
X142019020Y-96520000D01*
X144700000Y-93980000D02*
X142019020Y-93980000D01*
X143256000Y-87169000D02*
X143256000Y-86972100D01*
X143256000Y-86972100D02*
X142636900Y-86353000D01*
X142636900Y-86353000D02*
X142636900Y-83701000D01*
X142636900Y-87184900D02*
X143256000Y-87804000D01*
X140970000Y-87169000D02*
X140970000Y-87033900D01*
X140970000Y-87033900D02*
X141986000Y-86017900D01*
X141986000Y-86017900D02*
X141986000Y-83701000D01*
X141336900Y-83701000D02*
X141336900Y-85397000D01*
X140374000Y-85225000D02*
X138430000Y-87169000D01*
X141164900Y-85225000D02*
X140374000Y-85225000D01*
X141336900Y-85397000D02*
X141164900Y-85225000D01*
D27*
X166624000Y-98378000D02*
X162894000Y-98378000D01*
X162894000Y-98378000D02*
X162433000Y-97917000D01*
D26*
X147400000Y-93980000D02*
X149479000Y-93980000D01*
X151384000Y-92075000D02*
X155153000Y-92075000D01*
X149479000Y-93980000D02*
X151384000Y-92075000D01*
X155153000Y-92575000D02*
X151900000Y-92575000D01*
X151900000Y-92575000D02*
X147955000Y-96520000D01*
X147955000Y-96520000D02*
X147400000Y-96520000D01*
X159553000Y-92575000D02*
X165807000Y-92575000D01*
X165807000Y-92575000D02*
X168910000Y-95678000D01*
X168910000Y-95678000D02*
X166624000Y-95678000D01*
X169465000Y-92583000D02*
X168275000Y-92583000D01*
X167259000Y-92075000D02*
X159553000Y-92075000D01*
X168275000Y-92583000D02*
X167259000Y-92075000D01*
X162767000Y-94996000D02*
X162767000Y-94695000D01*
X162767000Y-94695000D02*
X161290000Y-93218000D01*
X161290000Y-93218000D02*
X160147000Y-93218000D01*
X160147000Y-93218000D02*
X159553000Y-93075000D01*
X155153000Y-91575000D02*
X154970900Y-91575000D01*
X154970900Y-91575000D02*
X154835900Y-91440000D01*
X154835900Y-91440000D02*
X153416000Y-91440000D01*
X155153000Y-91575000D02*
X153551000Y-91575000D01*
X153551000Y-91575000D02*
X153416000Y-91440000D01*
X155153000Y-91075000D02*
X153781000Y-91075000D01*
X153781000Y-91075000D02*
X153416000Y-91440000D01*
X145574000Y-89186000D02*
X145574000Y-87630000D01*
X145574000Y-89186000D02*
X146304000Y-89916000D01*
X147320000Y-91440000D02*
X148844000Y-89916000D01*
X150368000Y-91440000D02*
X151892000Y-89916000D01*
X154970900Y-91575000D02*
X155153000Y-91392900D01*
X155153000Y-91392900D02*
X155153000Y-91075000D01*
X155153000Y-91575000D02*
X155153000Y-91075000D01*
X143286900Y-83701000D02*
X143286900Y-85733000D01*
X139920980Y-93980000D02*
X139920980Y-91787980D01*
X139920980Y-91787980D02*
X139827000Y-91694000D01*
X139920980Y-96520000D02*
X139920980Y-93980000D01*
X174150020Y-98425000D02*
X174150020Y-99407980D01*
X143349980Y-99949000D02*
X139920980Y-96520000D01*
X173609000Y-99949000D02*
X143349980Y-99949000D01*
X174150020Y-99407980D02*
X173609000Y-99949000D01*
X143540900Y-84328000D02*
X143540900Y-84358900D01*
X143764000Y-84074000D02*
X143764000Y-85598000D01*
X143764000Y-84074000D02*
X143286900Y-84231900D01*
X143286900Y-83701000D02*
X143286900Y-83850900D01*
X143286900Y-83850900D02*
X144018000Y-83947000D01*
X144018000Y-83947000D02*
X144018000Y-85725000D01*
X143286900Y-83850900D02*
X143891000Y-83947000D01*
X143891000Y-83947000D02*
X143891000Y-85852000D01*
X143286900Y-83701000D02*
X143286900Y-84231900D01*
X143286900Y-83701000D02*
X143540900Y-84328000D01*
X143540900Y-84328000D02*
X143540900Y-85882900D01*
X174244000Y-90424000D02*
X172212000Y-90424000D01*
X170180000Y-90424000D02*
X167640000Y-90424000D01*
X165100000Y-90424000D02*
X162560000Y-90424000D01*
X159553000Y-91575000D02*
X160177900Y-91575000D01*
X160177900Y-91575000D02*
X160528000Y-91224900D01*
X160528000Y-91224900D02*
X160528000Y-90424000D01*
X159553000Y-91575000D02*
X159553000Y-91399000D01*
X169894000Y-85566000D02*
X169672000Y-85344000D01*
X169672000Y-85344000D02*
X169672000Y-84836000D01*
X171704000Y-84836000D02*
X171704000Y-82296000D01*
X171704000Y-80264000D02*
X174244000Y-80264000D01*
X174244000Y-82296000D02*
X174244000Y-84836000D01*
X174244000Y-86868000D02*
X172212000Y-86868000D01*
X172212000Y-88900000D02*
X174244000Y-88900000D01*
X169894000Y-85566000D02*
X169894000Y-87630000D01*
X159553000Y-91399000D02*
X160528000Y-90424000D01*
X159553000Y-91575000D02*
X159553000Y-91075000D01*
G36*
X165704317Y-80078098D02*
X165471572Y-80565813D01*
X165593475Y-80780000D01*
X166686900Y-80780000D01*
X166686900Y-80760000D01*
X166940900Y-80760000D01*
X166940900Y-80780000D01*
X166960900Y-80780000D01*
X166960900Y-81034000D01*
X166940900Y-81034000D01*
X166940900Y-82126656D01*
X167155085Y-82249318D01*
X167513000Y-82101076D01*
X167513000Y-86665063D01*
X167432327Y-86470301D01*
X167253698Y-86291673D01*
X167020309Y-86195000D01*
X166179750Y-86195000D01*
X166021000Y-86353750D01*
X166021000Y-87503000D01*
X166041000Y-87503000D01*
X166041000Y-87757000D01*
X166021000Y-87757000D01*
X166021000Y-87777000D01*
X165767000Y-87777000D01*
X165767000Y-87757000D01*
X164417750Y-87757000D01*
X164259000Y-87915750D01*
X164259000Y-88556310D01*
X164348756Y-88773000D01*
X158750000Y-88773000D01*
X158700590Y-88783006D01*
X158658965Y-88811447D01*
X158631685Y-88853841D01*
X158623000Y-88900000D01*
X158623000Y-90320838D01*
X158617683Y-90321838D01*
X158401559Y-90460910D01*
X158256569Y-90673110D01*
X158205560Y-90925000D01*
X158205560Y-91225000D01*
X158225067Y-91328671D01*
X158205560Y-91425000D01*
X158205560Y-91725000D01*
X158225067Y-91828671D01*
X158205560Y-91925000D01*
X158205560Y-92225000D01*
X158225067Y-92328671D01*
X158205560Y-92425000D01*
X158205560Y-92725000D01*
X158225067Y-92828671D01*
X158205560Y-92925000D01*
X158205560Y-93225000D01*
X158249838Y-93460317D01*
X158388910Y-93676441D01*
X158601110Y-93821431D01*
X158853000Y-93872440D01*
X158892535Y-93872440D01*
X158778673Y-93986301D01*
X158682000Y-94219690D01*
X158682000Y-94710250D01*
X158840750Y-94869000D01*
X159940000Y-94869000D01*
X159940000Y-94849000D01*
X160194000Y-94849000D01*
X160194000Y-94869000D01*
X160214000Y-94869000D01*
X160214000Y-95123000D01*
X160194000Y-95123000D01*
X160194000Y-96122250D01*
X160352750Y-96281000D01*
X160943309Y-96281000D01*
X161176698Y-96184327D01*
X161355327Y-96005699D01*
X161411654Y-95869713D01*
X161413838Y-95881317D01*
X161552910Y-96097441D01*
X161765110Y-96242431D01*
X161820067Y-96253560D01*
X161417000Y-96253560D01*
X161181683Y-96297838D01*
X160965559Y-96436910D01*
X160854160Y-96599948D01*
X160757818Y-96510615D01*
X160275944Y-96311025D01*
X160020000Y-96430164D01*
X160020000Y-97790000D01*
X160040000Y-97790000D01*
X160040000Y-98044000D01*
X160020000Y-98044000D01*
X160020000Y-98064000D01*
X159766000Y-98064000D01*
X159766000Y-98044000D01*
X158405633Y-98044000D01*
X158287017Y-98299946D01*
X158555812Y-98885379D01*
X158881097Y-99187000D01*
X148717000Y-99187000D01*
X148717000Y-97534054D01*
X158287017Y-97534054D01*
X158405633Y-97790000D01*
X159766000Y-97790000D01*
X159766000Y-96430164D01*
X159510056Y-96311025D01*
X159028182Y-96510615D01*
X158555812Y-96948621D01*
X158287017Y-97534054D01*
X148717000Y-97534054D01*
X148717000Y-97464964D01*
X148746431Y-97421890D01*
X148797440Y-97170000D01*
X148797440Y-96755190D01*
X150270880Y-95281750D01*
X158682000Y-95281750D01*
X158682000Y-95772310D01*
X158778673Y-96005699D01*
X158957302Y-96184327D01*
X159190691Y-96281000D01*
X159781250Y-96281000D01*
X159940000Y-96122250D01*
X159940000Y-95123000D01*
X158840750Y-95123000D01*
X158682000Y-95281750D01*
X150270880Y-95281750D01*
X152215631Y-93337000D01*
X153818000Y-93337000D01*
X153818000Y-93351310D01*
X153914673Y-93584699D01*
X154093302Y-93763327D01*
X154326691Y-93860000D01*
X154867250Y-93860000D01*
X155026000Y-93701250D01*
X155026000Y-93372440D01*
X155280000Y-93372440D01*
X155280000Y-93701250D01*
X155438750Y-93860000D01*
X155979309Y-93860000D01*
X156212698Y-93763327D01*
X156391327Y-93584699D01*
X156488000Y-93351310D01*
X156488000Y-93308750D01*
X156330379Y-93151129D01*
X156449431Y-92976890D01*
X156474080Y-92855170D01*
X156488000Y-92841250D01*
X156488000Y-92798690D01*
X156486333Y-92794665D01*
X156500440Y-92725000D01*
X156500440Y-92425000D01*
X156480933Y-92321329D01*
X156500440Y-92225000D01*
X156500440Y-91925000D01*
X156480933Y-91821329D01*
X156500440Y-91725000D01*
X156500440Y-91425000D01*
X156480933Y-91321329D01*
X156500440Y-91225000D01*
X156500440Y-90925000D01*
X156456162Y-90689683D01*
X156337000Y-90504500D01*
X156337000Y-88900000D01*
X156326994Y-88850590D01*
X156298553Y-88808965D01*
X156256159Y-88781685D01*
X156210000Y-88773000D01*
X151119244Y-88773000D01*
X151209000Y-88556310D01*
X151209000Y-87915750D01*
X151050250Y-87757000D01*
X149701000Y-87757000D01*
X149701000Y-87777000D01*
X149447000Y-87777000D01*
X149447000Y-87757000D01*
X149427000Y-87757000D01*
X149427000Y-87503000D01*
X149447000Y-87503000D01*
X149447000Y-86353750D01*
X149701000Y-86353750D01*
X149701000Y-87503000D01*
X151050250Y-87503000D01*
X151209000Y-87344250D01*
X151209000Y-86703690D01*
X151112327Y-86470301D01*
X150933698Y-86291673D01*
X150700309Y-86195000D01*
X149859750Y-86195000D01*
X149701000Y-86353750D01*
X149447000Y-86353750D01*
X149288250Y-86195000D01*
X148447691Y-86195000D01*
X148214302Y-86291673D01*
X148082000Y-86423974D01*
X148082000Y-86194578D01*
X161452159Y-86194578D01*
X161723054Y-86785703D01*
X162199542Y-87228164D01*
X162688122Y-87430541D01*
X162946500Y-87311604D01*
X162946500Y-85936200D01*
X163200500Y-85936200D01*
X163200500Y-87311604D01*
X163458878Y-87430541D01*
X164050003Y-87159646D01*
X164259000Y-86934576D01*
X164259000Y-87344250D01*
X164417750Y-87503000D01*
X165767000Y-87503000D01*
X165767000Y-86353750D01*
X165608250Y-86195000D01*
X164767691Y-86195000D01*
X164679542Y-86231512D01*
X164694841Y-86194578D01*
X164575904Y-85936200D01*
X163200500Y-85936200D01*
X162946500Y-85936200D01*
X161571096Y-85936200D01*
X161452159Y-86194578D01*
X148082000Y-86194578D01*
X148082000Y-85423822D01*
X161452159Y-85423822D01*
X161571096Y-85682200D01*
X162946500Y-85682200D01*
X162946500Y-84306796D01*
X163200500Y-84306796D01*
X163200500Y-85682200D01*
X164575904Y-85682200D01*
X164694841Y-85423822D01*
X164423946Y-84832697D01*
X163947458Y-84390236D01*
X163458878Y-84187859D01*
X163200500Y-84306796D01*
X162946500Y-84306796D01*
X162688122Y-84187859D01*
X162096997Y-84458754D01*
X161654536Y-84935242D01*
X161452159Y-85423822D01*
X148082000Y-85423822D01*
X148082000Y-81248187D01*
X165471572Y-81248187D01*
X165704317Y-81735902D01*
X166105986Y-82097425D01*
X166472715Y-82249318D01*
X166686900Y-82126656D01*
X166686900Y-81034000D01*
X165593475Y-81034000D01*
X165471572Y-81248187D01*
X148082000Y-81248187D01*
X148082000Y-79831000D01*
X165978854Y-79831000D01*
X165704317Y-80078098D01*
X165704317Y-80078098D01*
G37*
X165704317Y-80078098D02*
X165471572Y-80565813D01*
X165593475Y-80780000D01*
X166686900Y-80780000D01*
X166686900Y-80760000D01*
X166940900Y-80760000D01*
X166940900Y-80780000D01*
X166960900Y-80780000D01*
X166960900Y-81034000D01*
X166940900Y-81034000D01*
X166940900Y-82126656D01*
X167155085Y-82249318D01*
X167513000Y-82101076D01*
X167513000Y-86665063D01*
X167432327Y-86470301D01*
X167253698Y-86291673D01*
X167020309Y-86195000D01*
X166179750Y-86195000D01*
X166021000Y-86353750D01*
X166021000Y-87503000D01*
X166041000Y-87503000D01*
X166041000Y-87757000D01*
X166021000Y-87757000D01*
X166021000Y-87777000D01*
X165767000Y-87777000D01*
X165767000Y-87757000D01*
X164417750Y-87757000D01*
X164259000Y-87915750D01*
X164259000Y-88556310D01*
X164348756Y-88773000D01*
X158750000Y-88773000D01*
X158700590Y-88783006D01*
X158658965Y-88811447D01*
X158631685Y-88853841D01*
X158623000Y-88900000D01*
X158623000Y-90320838D01*
X158617683Y-90321838D01*
X158401559Y-90460910D01*
X158256569Y-90673110D01*
X158205560Y-90925000D01*
X158205560Y-91225000D01*
X158225067Y-91328671D01*
X158205560Y-91425000D01*
X158205560Y-91725000D01*
X158225067Y-91828671D01*
X158205560Y-91925000D01*
X158205560Y-92225000D01*
X158225067Y-92328671D01*
X158205560Y-92425000D01*
X158205560Y-92725000D01*
X158225067Y-92828671D01*
X158205560Y-92925000D01*
X158205560Y-93225000D01*
X158249838Y-93460317D01*
X158388910Y-93676441D01*
X158601110Y-93821431D01*
X158853000Y-93872440D01*
X158892535Y-93872440D01*
X158778673Y-93986301D01*
X158682000Y-94219690D01*
X158682000Y-94710250D01*
X158840750Y-94869000D01*
X159940000Y-94869000D01*
X159940000Y-94849000D01*
X160194000Y-94849000D01*
X160194000Y-94869000D01*
X160214000Y-94869000D01*
X160214000Y-95123000D01*
X160194000Y-95123000D01*
X160194000Y-96122250D01*
X160352750Y-96281000D01*
X160943309Y-96281000D01*
X161176698Y-96184327D01*
X161355327Y-96005699D01*
X161411654Y-95869713D01*
X161413838Y-95881317D01*
X161552910Y-96097441D01*
X161765110Y-96242431D01*
X161820067Y-96253560D01*
X161417000Y-96253560D01*
X161181683Y-96297838D01*
X160965559Y-96436910D01*
X160854160Y-96599948D01*
X160757818Y-96510615D01*
X160275944Y-96311025D01*
X160020000Y-96430164D01*
X160020000Y-97790000D01*
X160040000Y-97790000D01*
X160040000Y-98044000D01*
X160020000Y-98044000D01*
X160020000Y-98064000D01*
X159766000Y-98064000D01*
X159766000Y-98044000D01*
X158405633Y-98044000D01*
X158287017Y-98299946D01*
X158555812Y-98885379D01*
X158881097Y-99187000D01*
X148717000Y-99187000D01*
X148717000Y-97534054D01*
X158287017Y-97534054D01*
X158405633Y-97790000D01*
X159766000Y-97790000D01*
X159766000Y-96430164D01*
X159510056Y-96311025D01*
X159028182Y-96510615D01*
X158555812Y-96948621D01*
X158287017Y-97534054D01*
X148717000Y-97534054D01*
X148717000Y-97464964D01*
X148746431Y-97421890D01*
X148797440Y-97170000D01*
X148797440Y-96755190D01*
X150270880Y-95281750D01*
X158682000Y-95281750D01*
X158682000Y-95772310D01*
X158778673Y-96005699D01*
X158957302Y-96184327D01*
X159190691Y-96281000D01*
X159781250Y-96281000D01*
X159940000Y-96122250D01*
X159940000Y-95123000D01*
X158840750Y-95123000D01*
X158682000Y-95281750D01*
X150270880Y-95281750D01*
X152215631Y-93337000D01*
X153818000Y-93337000D01*
X153818000Y-93351310D01*
X153914673Y-93584699D01*
X154093302Y-93763327D01*
X154326691Y-93860000D01*
X154867250Y-93860000D01*
X155026000Y-93701250D01*
X155026000Y-93372440D01*
X155280000Y-93372440D01*
X155280000Y-93701250D01*
X155438750Y-93860000D01*
X155979309Y-93860000D01*
X156212698Y-93763327D01*
X156391327Y-93584699D01*
X156488000Y-93351310D01*
X156488000Y-93308750D01*
X156330379Y-93151129D01*
X156449431Y-92976890D01*
X156474080Y-92855170D01*
X156488000Y-92841250D01*
X156488000Y-92798690D01*
X156486333Y-92794665D01*
X156500440Y-92725000D01*
X156500440Y-92425000D01*
X156480933Y-92321329D01*
X156500440Y-92225000D01*
X156500440Y-91925000D01*
X156480933Y-91821329D01*
X156500440Y-91725000D01*
X156500440Y-91425000D01*
X156480933Y-91321329D01*
X156500440Y-91225000D01*
X156500440Y-90925000D01*
X156456162Y-90689683D01*
X156337000Y-90504500D01*
X156337000Y-88900000D01*
X156326994Y-88850590D01*
X156298553Y-88808965D01*
X156256159Y-88781685D01*
X156210000Y-88773000D01*
X151119244Y-88773000D01*
X151209000Y-88556310D01*
X151209000Y-87915750D01*
X151050250Y-87757000D01*
X149701000Y-87757000D01*
X149701000Y-87777000D01*
X149447000Y-87777000D01*
X149447000Y-87757000D01*
X149427000Y-87757000D01*
X149427000Y-87503000D01*
X149447000Y-87503000D01*
X149447000Y-86353750D01*
X149701000Y-86353750D01*
X149701000Y-87503000D01*
X151050250Y-87503000D01*
X151209000Y-87344250D01*
X151209000Y-86703690D01*
X151112327Y-86470301D01*
X150933698Y-86291673D01*
X150700309Y-86195000D01*
X149859750Y-86195000D01*
X149701000Y-86353750D01*
X149447000Y-86353750D01*
X149288250Y-86195000D01*
X148447691Y-86195000D01*
X148214302Y-86291673D01*
X148082000Y-86423974D01*
X148082000Y-86194578D01*
X161452159Y-86194578D01*
X161723054Y-86785703D01*
X162199542Y-87228164D01*
X162688122Y-87430541D01*
X162946500Y-87311604D01*
X162946500Y-85936200D01*
X163200500Y-85936200D01*
X163200500Y-87311604D01*
X163458878Y-87430541D01*
X164050003Y-87159646D01*
X164259000Y-86934576D01*
X164259000Y-87344250D01*
X164417750Y-87503000D01*
X165767000Y-87503000D01*
X165767000Y-86353750D01*
X165608250Y-86195000D01*
X164767691Y-86195000D01*
X164679542Y-86231512D01*
X164694841Y-86194578D01*
X164575904Y-85936200D01*
X163200500Y-85936200D01*
X162946500Y-85936200D01*
X161571096Y-85936200D01*
X161452159Y-86194578D01*
X148082000Y-86194578D01*
X148082000Y-85423822D01*
X161452159Y-85423822D01*
X161571096Y-85682200D01*
X162946500Y-85682200D01*
X162946500Y-84306796D01*
X163200500Y-84306796D01*
X163200500Y-85682200D01*
X164575904Y-85682200D01*
X164694841Y-85423822D01*
X164423946Y-84832697D01*
X163947458Y-84390236D01*
X163458878Y-84187859D01*
X163200500Y-84306796D01*
X162946500Y-84306796D01*
X162688122Y-84187859D01*
X162096997Y-84458754D01*
X161654536Y-84935242D01*
X161452159Y-85423822D01*
X148082000Y-85423822D01*
X148082000Y-81248187D01*
X165471572Y-81248187D01*
X165704317Y-81735902D01*
X166105986Y-82097425D01*
X166472715Y-82249318D01*
X166686900Y-82126656D01*
X166686900Y-81034000D01*
X165593475Y-81034000D01*
X165471572Y-81248187D01*
X148082000Y-81248187D01*
X148082000Y-79831000D01*
X165978854Y-79831000D01*
X165704317Y-80078098D01*
G36*
X147294600Y-85724701D02*
X147294600Y-89408000D01*
X147304606Y-89457410D01*
X147333047Y-89499035D01*
X147375441Y-89526315D01*
X147421600Y-89535000D01*
X155575000Y-89535000D01*
X155575000Y-90290000D01*
X155438750Y-90290000D01*
X155280000Y-90448750D01*
X155280000Y-91222000D01*
X155026000Y-91222000D01*
X155026000Y-90448750D01*
X154867250Y-90290000D01*
X154326691Y-90290000D01*
X154093302Y-90386673D01*
X153914673Y-90565301D01*
X153818000Y-90798690D01*
X153818000Y-90841250D01*
X153976750Y-91000000D01*
X153979974Y-91000000D01*
X153914673Y-91065301D01*
X153818000Y-91298690D01*
X153818000Y-91313000D01*
X151384000Y-91313000D01*
X151092395Y-91371004D01*
X150845185Y-91536185D01*
X150687370Y-91694000D01*
X137362000Y-91694000D01*
X137362000Y-91099026D01*
X137420301Y-91157327D01*
X137653690Y-91254000D01*
X138144250Y-91254000D01*
X138303000Y-91095250D01*
X138303000Y-89996000D01*
X138557000Y-89996000D01*
X138557000Y-91095250D01*
X138715750Y-91254000D01*
X139206310Y-91254000D01*
X139439699Y-91157327D01*
X139618327Y-90978698D01*
X139700000Y-90781522D01*
X139781673Y-90978698D01*
X139960301Y-91157327D01*
X140193690Y-91254000D01*
X140684250Y-91254000D01*
X140843000Y-91095250D01*
X140843000Y-89996000D01*
X141097000Y-89996000D01*
X141097000Y-91095250D01*
X141255750Y-91254000D01*
X141746310Y-91254000D01*
X141979699Y-91157327D01*
X142113000Y-91024025D01*
X142246301Y-91157327D01*
X142479690Y-91254000D01*
X142970250Y-91254000D01*
X143129000Y-91095250D01*
X143129000Y-89996000D01*
X143383000Y-89996000D01*
X143383000Y-91095250D01*
X143541750Y-91254000D01*
X144032310Y-91254000D01*
X144265699Y-91157327D01*
X144444327Y-90978698D01*
X144541000Y-90745309D01*
X144541000Y-90154750D01*
X144382250Y-89996000D01*
X143383000Y-89996000D01*
X143129000Y-89996000D01*
X142129750Y-89996000D01*
X142113000Y-90012750D01*
X142096250Y-89996000D01*
X141097000Y-89996000D01*
X140843000Y-89996000D01*
X139843750Y-89996000D01*
X139700000Y-90139750D01*
X139556250Y-89996000D01*
X138557000Y-89996000D01*
X138303000Y-89996000D01*
X138283000Y-89996000D01*
X138283000Y-89742000D01*
X138303000Y-89742000D01*
X138303000Y-89722000D01*
X138557000Y-89722000D01*
X138557000Y-89742000D01*
X139556250Y-89742000D01*
X139700000Y-89598250D01*
X139843750Y-89742000D01*
X140843000Y-89742000D01*
X140843000Y-89722000D01*
X141097000Y-89722000D01*
X141097000Y-89742000D01*
X142096250Y-89742000D01*
X142113000Y-89725250D01*
X142129750Y-89742000D01*
X143129000Y-89742000D01*
X143129000Y-89722000D01*
X143383000Y-89722000D01*
X143383000Y-89742000D01*
X144382250Y-89742000D01*
X144541000Y-89583250D01*
X144541000Y-89065000D01*
X145288250Y-89065000D01*
X145447000Y-88906250D01*
X145447000Y-87757000D01*
X145701000Y-87757000D01*
X145701000Y-88906250D01*
X145859750Y-89065000D01*
X146700309Y-89065000D01*
X146933698Y-88968327D01*
X147112327Y-88789699D01*
X147209000Y-88556310D01*
X147209000Y-87915750D01*
X147050250Y-87757000D01*
X145701000Y-87757000D01*
X145447000Y-87757000D01*
X145427000Y-87757000D01*
X145427000Y-87503000D01*
X145447000Y-87503000D01*
X145447000Y-86353750D01*
X145701000Y-86353750D01*
X145701000Y-87503000D01*
X147050250Y-87503000D01*
X147209000Y-87344250D01*
X147209000Y-86703690D01*
X147112327Y-86470301D01*
X146933698Y-86291673D01*
X146700309Y-86195000D01*
X145859750Y-86195000D01*
X145701000Y-86353750D01*
X145447000Y-86353750D01*
X145288250Y-86195000D01*
X144511291Y-86195000D01*
X144509162Y-86183683D01*
X144370090Y-85967559D01*
X144157890Y-85822569D01*
X143906000Y-85771560D01*
X143398900Y-85771560D01*
X143398900Y-85715513D01*
X147294600Y-85724701D01*
X147294600Y-85724701D01*
G37*
X147294600Y-85724701D02*
X147294600Y-89408000D01*
X147304606Y-89457410D01*
X147333047Y-89499035D01*
X147375441Y-89526315D01*
X147421600Y-89535000D01*
X155575000Y-89535000D01*
X155575000Y-90290000D01*
X155438750Y-90290000D01*
X155280000Y-90448750D01*
X155280000Y-91222000D01*
X155026000Y-91222000D01*
X155026000Y-90448750D01*
X154867250Y-90290000D01*
X154326691Y-90290000D01*
X154093302Y-90386673D01*
X153914673Y-90565301D01*
X153818000Y-90798690D01*
X153818000Y-90841250D01*
X153976750Y-91000000D01*
X153979974Y-91000000D01*
X153914673Y-91065301D01*
X153818000Y-91298690D01*
X153818000Y-91313000D01*
X151384000Y-91313000D01*
X151092395Y-91371004D01*
X150845185Y-91536185D01*
X150687370Y-91694000D01*
X137362000Y-91694000D01*
X137362000Y-91099026D01*
X137420301Y-91157327D01*
X137653690Y-91254000D01*
X138144250Y-91254000D01*
X138303000Y-91095250D01*
X138303000Y-89996000D01*
X138557000Y-89996000D01*
X138557000Y-91095250D01*
X138715750Y-91254000D01*
X139206310Y-91254000D01*
X139439699Y-91157327D01*
X139618327Y-90978698D01*
X139700000Y-90781522D01*
X139781673Y-90978698D01*
X139960301Y-91157327D01*
X140193690Y-91254000D01*
X140684250Y-91254000D01*
X140843000Y-91095250D01*
X140843000Y-89996000D01*
X141097000Y-89996000D01*
X141097000Y-91095250D01*
X141255750Y-91254000D01*
X141746310Y-91254000D01*
X141979699Y-91157327D01*
X142113000Y-91024025D01*
X142246301Y-91157327D01*
X142479690Y-91254000D01*
X142970250Y-91254000D01*
X143129000Y-91095250D01*
X143129000Y-89996000D01*
X143383000Y-89996000D01*
X143383000Y-91095250D01*
X143541750Y-91254000D01*
X144032310Y-91254000D01*
X144265699Y-91157327D01*
X144444327Y-90978698D01*
X144541000Y-90745309D01*
X144541000Y-90154750D01*
X144382250Y-89996000D01*
X143383000Y-89996000D01*
X143129000Y-89996000D01*
X142129750Y-89996000D01*
X142113000Y-90012750D01*
X142096250Y-89996000D01*
X141097000Y-89996000D01*
X140843000Y-89996000D01*
X139843750Y-89996000D01*
X139700000Y-90139750D01*
X139556250Y-89996000D01*
X138557000Y-89996000D01*
X138303000Y-89996000D01*
X138283000Y-89996000D01*
X138283000Y-89742000D01*
X138303000Y-89742000D01*
X138303000Y-89722000D01*
X138557000Y-89722000D01*
X138557000Y-89742000D01*
X139556250Y-89742000D01*
X139700000Y-89598250D01*
X139843750Y-89742000D01*
X140843000Y-89742000D01*
X140843000Y-89722000D01*
X141097000Y-89722000D01*
X141097000Y-89742000D01*
X142096250Y-89742000D01*
X142113000Y-89725250D01*
X142129750Y-89742000D01*
X143129000Y-89742000D01*
X143129000Y-89722000D01*
X143383000Y-89722000D01*
X143383000Y-89742000D01*
X144382250Y-89742000D01*
X144541000Y-89583250D01*
X144541000Y-89065000D01*
X145288250Y-89065000D01*
X145447000Y-88906250D01*
X145447000Y-87757000D01*
X145701000Y-87757000D01*
X145701000Y-88906250D01*
X145859750Y-89065000D01*
X146700309Y-89065000D01*
X146933698Y-88968327D01*
X147112327Y-88789699D01*
X147209000Y-88556310D01*
X147209000Y-87915750D01*
X147050250Y-87757000D01*
X145701000Y-87757000D01*
X145447000Y-87757000D01*
X145427000Y-87757000D01*
X145427000Y-87503000D01*
X145447000Y-87503000D01*
X145447000Y-86353750D01*
X145701000Y-86353750D01*
X145701000Y-87503000D01*
X147050250Y-87503000D01*
X147209000Y-87344250D01*
X147209000Y-86703690D01*
X147112327Y-86470301D01*
X146933698Y-86291673D01*
X146700309Y-86195000D01*
X145859750Y-86195000D01*
X145701000Y-86353750D01*
X145447000Y-86353750D01*
X145288250Y-86195000D01*
X144511291Y-86195000D01*
X144509162Y-86183683D01*
X144370090Y-85967559D01*
X144157890Y-85822569D01*
X143906000Y-85771560D01*
X143398900Y-85771560D01*
X143398900Y-85715513D01*
X147294600Y-85724701D01*
G36*
X175058000Y-91567000D02*
X171084693Y-91567000D01*
X170584252Y-91359199D01*
X169934011Y-91358631D01*
X169429719Y-91567000D01*
X167946884Y-91567000D01*
X167599777Y-91393446D01*
X167573368Y-91386214D01*
X167550605Y-91371004D01*
X167430819Y-91347177D01*
X167313017Y-91314917D01*
X167285853Y-91318341D01*
X167259000Y-91313000D01*
X160888000Y-91313000D01*
X160888000Y-91298690D01*
X160791327Y-91065301D01*
X160726026Y-91000000D01*
X160729250Y-91000000D01*
X160888000Y-90841250D01*
X160888000Y-90798690D01*
X160791327Y-90565301D01*
X160612698Y-90386673D01*
X160379309Y-90290000D01*
X159838750Y-90290000D01*
X159680000Y-90448750D01*
X159680000Y-91222000D01*
X159426000Y-91222000D01*
X159426000Y-90448750D01*
X159385000Y-90407750D01*
X159385000Y-89535000D01*
X168148000Y-89535000D01*
X168197410Y-89524994D01*
X168239035Y-89496553D01*
X168266315Y-89454159D01*
X168275000Y-89408000D01*
X168275000Y-88594937D01*
X168355673Y-88789699D01*
X168534302Y-88968327D01*
X168767691Y-89065000D01*
X169608250Y-89065000D01*
X169767000Y-88906250D01*
X169767000Y-87757000D01*
X170021000Y-87757000D01*
X170021000Y-88906250D01*
X170179750Y-89065000D01*
X171020309Y-89065000D01*
X171253698Y-88968327D01*
X171432327Y-88789699D01*
X171529000Y-88556310D01*
X171529000Y-87915750D01*
X171370250Y-87757000D01*
X170021000Y-87757000D01*
X169767000Y-87757000D01*
X169747000Y-87757000D01*
X169747000Y-87503000D01*
X169767000Y-87503000D01*
X169767000Y-86353750D01*
X170021000Y-86353750D01*
X170021000Y-87503000D01*
X171370250Y-87503000D01*
X171529000Y-87344250D01*
X171529000Y-86703690D01*
X171432327Y-86470301D01*
X171253698Y-86291673D01*
X171020309Y-86195000D01*
X170179750Y-86195000D01*
X170021000Y-86353750D01*
X169767000Y-86353750D01*
X169608250Y-86195000D01*
X168767691Y-86195000D01*
X168534302Y-86291673D01*
X168355673Y-86470301D01*
X168275000Y-86665063D01*
X168275000Y-82292000D01*
X168528150Y-82292000D01*
X168686900Y-82133250D01*
X168686900Y-81034000D01*
X168940900Y-81034000D01*
X168940900Y-82133250D01*
X169099650Y-82292000D01*
X169690210Y-82292000D01*
X169923599Y-82195327D01*
X170102227Y-82016698D01*
X170198900Y-81783309D01*
X170198900Y-81192750D01*
X170040150Y-81034000D01*
X168940900Y-81034000D01*
X168686900Y-81034000D01*
X168666900Y-81034000D01*
X168666900Y-80780000D01*
X168686900Y-80780000D01*
X168686900Y-80760000D01*
X168940900Y-80760000D01*
X168940900Y-80780000D01*
X170040150Y-80780000D01*
X170198900Y-80621250D01*
X170198900Y-80030691D01*
X170116185Y-79831000D01*
X175058000Y-79831000D01*
X175058000Y-91567000D01*
X175058000Y-91567000D01*
G37*
X175058000Y-91567000D02*
X171084693Y-91567000D01*
X170584252Y-91359199D01*
X169934011Y-91358631D01*
X169429719Y-91567000D01*
X167946884Y-91567000D01*
X167599777Y-91393446D01*
X167573368Y-91386214D01*
X167550605Y-91371004D01*
X167430819Y-91347177D01*
X167313017Y-91314917D01*
X167285853Y-91318341D01*
X167259000Y-91313000D01*
X160888000Y-91313000D01*
X160888000Y-91298690D01*
X160791327Y-91065301D01*
X160726026Y-91000000D01*
X160729250Y-91000000D01*
X160888000Y-90841250D01*
X160888000Y-90798690D01*
X160791327Y-90565301D01*
X160612698Y-90386673D01*
X160379309Y-90290000D01*
X159838750Y-90290000D01*
X159680000Y-90448750D01*
X159680000Y-91222000D01*
X159426000Y-91222000D01*
X159426000Y-90448750D01*
X159385000Y-90407750D01*
X159385000Y-89535000D01*
X168148000Y-89535000D01*
X168197410Y-89524994D01*
X168239035Y-89496553D01*
X168266315Y-89454159D01*
X168275000Y-89408000D01*
X168275000Y-88594937D01*
X168355673Y-88789699D01*
X168534302Y-88968327D01*
X168767691Y-89065000D01*
X169608250Y-89065000D01*
X169767000Y-88906250D01*
X169767000Y-87757000D01*
X170021000Y-87757000D01*
X170021000Y-88906250D01*
X170179750Y-89065000D01*
X171020309Y-89065000D01*
X171253698Y-88968327D01*
X171432327Y-88789699D01*
X171529000Y-88556310D01*
X171529000Y-87915750D01*
X171370250Y-87757000D01*
X170021000Y-87757000D01*
X169767000Y-87757000D01*
X169747000Y-87757000D01*
X169747000Y-87503000D01*
X169767000Y-87503000D01*
X169767000Y-86353750D01*
X170021000Y-86353750D01*
X170021000Y-87503000D01*
X171370250Y-87503000D01*
X171529000Y-87344250D01*
X171529000Y-86703690D01*
X171432327Y-86470301D01*
X171253698Y-86291673D01*
X171020309Y-86195000D01*
X170179750Y-86195000D01*
X170021000Y-86353750D01*
X169767000Y-86353750D01*
X169608250Y-86195000D01*
X168767691Y-86195000D01*
X168534302Y-86291673D01*
X168355673Y-86470301D01*
X168275000Y-86665063D01*
X168275000Y-82292000D01*
X168528150Y-82292000D01*
X168686900Y-82133250D01*
X168686900Y-81034000D01*
X168940900Y-81034000D01*
X168940900Y-82133250D01*
X169099650Y-82292000D01*
X169690210Y-82292000D01*
X169923599Y-82195327D01*
X170102227Y-82016698D01*
X170198900Y-81783309D01*
X170198900Y-81192750D01*
X170040150Y-81034000D01*
X168940900Y-81034000D01*
X168686900Y-81034000D01*
X168666900Y-81034000D01*
X168666900Y-80780000D01*
X168686900Y-80780000D01*
X168686900Y-80760000D01*
X168940900Y-80760000D01*
X168940900Y-80780000D01*
X170040150Y-80780000D01*
X170198900Y-80621250D01*
X170198900Y-80030691D01*
X170116185Y-79831000D01*
X175058000Y-79831000D01*
X175058000Y-91567000D01*
M02*
