G04 #@! TF.FileFunction,Copper,L2,Bot,Signal*
%FSLAX46Y46*%
G04 Gerber Fmt 4.6, Leading zero omitted, Abs format (unit mm)*
G04 Created by KiCad (PCBNEW 4.0.2-4+6225~38~ubuntu14.04.1-stable) date Sat 05 Mar 2016 02:02:49 PM PST*
%MOMM*%
G01*
G04 APERTURE LIST*
%ADD10C,0.100000*%
%ADD11C,1.600000*%
%ADD12R,2.032000X2.032000*%
%ADD13O,2.032000X2.032000*%
%ADD14R,1.500000X1.500000*%
%ADD15O,1.500000X1.500000*%
%ADD16C,1.998980*%
%ADD17C,0.685800*%
%ADD18C,0.254000*%
G04 APERTURE END LIST*
D10*
D11*
X138686000Y-81026000D03*
X145286000Y-81026000D03*
D12*
X162433000Y-97917000D03*
D13*
X159893000Y-97917000D03*
D14*
X168813900Y-80907000D03*
D15*
X166813900Y-80907000D03*
D16*
X163073500Y-85809200D03*
X170257705Y-92993405D03*
D17*
X157480000Y-98044000D03*
X155448000Y-98044000D03*
X153416000Y-98044000D03*
X150876000Y-98044000D03*
X150876000Y-96012000D03*
X153416000Y-96012000D03*
X153416000Y-94488000D03*
X155448000Y-94488000D03*
X157480000Y-89916000D03*
X157480000Y-91440000D03*
X157480000Y-92964000D03*
X155448000Y-96012000D03*
X157480000Y-96012000D03*
X157480000Y-94488000D03*
X166116000Y-85344000D03*
X163530700Y-88120600D03*
X164673700Y-84005800D03*
X163576000Y-81280000D03*
X161544000Y-81280000D03*
X161544000Y-83312000D03*
X160863700Y-84742400D03*
X161016100Y-87892000D03*
X159512000Y-87376000D03*
X159512000Y-85344000D03*
X159512000Y-83312000D03*
X159512000Y-81280000D03*
X157480000Y-81280000D03*
X157480000Y-83312000D03*
X157480000Y-85344000D03*
X157480000Y-87376000D03*
X155448000Y-87376000D03*
X152400000Y-86868000D03*
X155448000Y-85344000D03*
X155448000Y-83312000D03*
X155448000Y-81280000D03*
X153416000Y-81280000D03*
X153416000Y-83312000D03*
X153416000Y-85344000D03*
X151384000Y-85344000D03*
X151384000Y-83312000D03*
X151384000Y-81280000D03*
X149352000Y-81280000D03*
X149352000Y-83312000D03*
X149352000Y-85344000D03*
X153416000Y-91440000D03*
X146304000Y-89916000D03*
X147320000Y-91440000D03*
X148844000Y-89916000D03*
X150368000Y-91440000D03*
X151892000Y-89916000D03*
X172212000Y-90424000D03*
X170180000Y-90424000D03*
X167640000Y-90424000D03*
X165100000Y-90424000D03*
X162560000Y-90424000D03*
X169672000Y-84836000D03*
X171704000Y-84836000D03*
X171704000Y-82296000D03*
X171704000Y-80264000D03*
X174244000Y-80264000D03*
X174244000Y-82296000D03*
X174244000Y-84836000D03*
X174244000Y-86868000D03*
X172212000Y-86868000D03*
X172212000Y-88900000D03*
X174244000Y-88900000D03*
X174244000Y-90424000D03*
X160528000Y-90424000D03*
D18*
X157480000Y-98044000D02*
X155956000Y-98044000D01*
X155956000Y-98044000D02*
X155448000Y-98044000D01*
X153416000Y-98044000D02*
X150876000Y-98044000D01*
X150876000Y-96012000D02*
X153416000Y-96012000D01*
X153416000Y-94488000D02*
X155448000Y-94488000D01*
X157480000Y-91440000D02*
X157480000Y-89916000D01*
X155448000Y-96012000D02*
X157480000Y-96012000D01*
X157480000Y-94488000D02*
X157480000Y-92964000D01*
X163576000Y-85344000D02*
X163530700Y-88120600D01*
X163576000Y-81280000D02*
X164673700Y-84005800D01*
X161544000Y-83312000D02*
X161544000Y-81280000D01*
X161016100Y-87892000D02*
X160863700Y-84742400D01*
X159512000Y-85344000D02*
X159512000Y-87376000D01*
X159512000Y-81280000D02*
X159512000Y-83312000D01*
X157480000Y-83312000D02*
X157480000Y-81280000D01*
X157480000Y-87376000D02*
X157480000Y-85344000D01*
X152908000Y-87376000D02*
X155448000Y-87376000D01*
X152400000Y-86868000D02*
X152908000Y-87376000D01*
X155448000Y-83312000D02*
X155448000Y-85344000D01*
X153416000Y-81280000D02*
X155448000Y-81280000D01*
X153416000Y-85344000D02*
X153416000Y-83312000D01*
X151384000Y-83312000D02*
X151384000Y-85344000D01*
X149352000Y-81280000D02*
X151384000Y-81280000D01*
X149352000Y-85344000D02*
X149352000Y-83312000D01*
X146304000Y-89916000D02*
X147320000Y-90932000D01*
X147320000Y-90932000D02*
X147320000Y-91440000D01*
X148844000Y-89916000D02*
X150368000Y-91440000D01*
X153416000Y-91440000D02*
X151892000Y-89916000D01*
X172212000Y-90424000D02*
X170180000Y-90424000D01*
X167640000Y-90424000D02*
X165100000Y-90424000D01*
X162560000Y-90424000D02*
X160528000Y-90424000D01*
X169672000Y-84836000D02*
X171704000Y-84836000D01*
X171704000Y-82296000D02*
X171704000Y-80264000D01*
X174244000Y-80264000D02*
X174244000Y-82296000D01*
X174244000Y-84836000D02*
X174244000Y-86868000D01*
X172212000Y-86868000D02*
X172212000Y-88900000D01*
X174244000Y-88900000D02*
X174244000Y-90424000D01*
G36*
X144070176Y-80212077D02*
X143851250Y-80739309D01*
X143850752Y-81310187D01*
X144068757Y-81837800D01*
X144472077Y-82241824D01*
X144999309Y-82460750D01*
X145570187Y-82461248D01*
X146097800Y-82243243D01*
X146501824Y-81839923D01*
X146720750Y-81312691D01*
X146721248Y-80741813D01*
X146503243Y-80214200D01*
X146120711Y-79831000D01*
X147294600Y-79831000D01*
X147294600Y-89408000D01*
X147304606Y-89457410D01*
X147333047Y-89499035D01*
X147375441Y-89526315D01*
X147421600Y-89535000D01*
X155575000Y-89535000D01*
X155575000Y-91567000D01*
X137362000Y-91567000D01*
X137362000Y-81579428D01*
X137468757Y-81837800D01*
X137872077Y-82241824D01*
X138399309Y-82460750D01*
X138970187Y-82461248D01*
X139497800Y-82243243D01*
X139901824Y-81839923D01*
X140120750Y-81312691D01*
X140121248Y-80741813D01*
X139903243Y-80214200D01*
X139520711Y-79831000D01*
X144451918Y-79831000D01*
X144070176Y-80212077D01*
X144070176Y-80212077D01*
G37*
X144070176Y-80212077D02*
X143851250Y-80739309D01*
X143850752Y-81310187D01*
X144068757Y-81837800D01*
X144472077Y-82241824D01*
X144999309Y-82460750D01*
X145570187Y-82461248D01*
X146097800Y-82243243D01*
X146501824Y-81839923D01*
X146720750Y-81312691D01*
X146721248Y-80741813D01*
X146503243Y-80214200D01*
X146120711Y-79831000D01*
X147294600Y-79831000D01*
X147294600Y-89408000D01*
X147304606Y-89457410D01*
X147333047Y-89499035D01*
X147375441Y-89526315D01*
X147421600Y-89535000D01*
X155575000Y-89535000D01*
X155575000Y-91567000D01*
X137362000Y-91567000D01*
X137362000Y-81579428D01*
X137468757Y-81837800D01*
X137872077Y-82241824D01*
X138399309Y-82460750D01*
X138970187Y-82461248D01*
X139497800Y-82243243D01*
X139901824Y-81839923D01*
X140120750Y-81312691D01*
X140121248Y-80741813D01*
X139903243Y-80214200D01*
X139520711Y-79831000D01*
X144451918Y-79831000D01*
X144070176Y-80212077D01*
G36*
X165704317Y-80078098D02*
X165471572Y-80565813D01*
X165593475Y-80780000D01*
X166686900Y-80780000D01*
X166686900Y-80760000D01*
X166940900Y-80760000D01*
X166940900Y-80780000D01*
X166960900Y-80780000D01*
X166960900Y-81034000D01*
X166940900Y-81034000D01*
X166940900Y-82126656D01*
X167155085Y-82249318D01*
X167513000Y-82101076D01*
X167513000Y-88773000D01*
X158750000Y-88773000D01*
X158700590Y-88783006D01*
X158658965Y-88811447D01*
X158631685Y-88853841D01*
X158623000Y-88900000D01*
X158623000Y-92710000D01*
X158633006Y-92759410D01*
X158661447Y-92801035D01*
X158703841Y-92828315D01*
X158750000Y-92837000D01*
X167514388Y-92837000D01*
X167587797Y-99517200D01*
X163713785Y-99517200D01*
X163900441Y-99397090D01*
X164045431Y-99184890D01*
X164096440Y-98933000D01*
X164096440Y-96901000D01*
X164052162Y-96665683D01*
X163913090Y-96449559D01*
X163700890Y-96304569D01*
X163449000Y-96253560D01*
X161417000Y-96253560D01*
X161181683Y-96297838D01*
X160965559Y-96436910D01*
X160854160Y-96599948D01*
X160757818Y-96510615D01*
X160275944Y-96311025D01*
X160020000Y-96430164D01*
X160020000Y-97790000D01*
X160040000Y-97790000D01*
X160040000Y-98044000D01*
X160020000Y-98044000D01*
X160020000Y-98064000D01*
X159766000Y-98064000D01*
X159766000Y-98044000D01*
X158405633Y-98044000D01*
X158287017Y-98299946D01*
X158555812Y-98885379D01*
X159028182Y-99323385D01*
X159496113Y-99517200D01*
X148766412Y-99517200D01*
X148744620Y-97534054D01*
X158287017Y-97534054D01*
X158405633Y-97790000D01*
X159766000Y-97790000D01*
X159766000Y-96430164D01*
X159510056Y-96311025D01*
X159028182Y-96510615D01*
X158555812Y-96948621D01*
X158287017Y-97534054D01*
X148744620Y-97534054D01*
X148693003Y-92837000D01*
X156210000Y-92837000D01*
X156259410Y-92826994D01*
X156301035Y-92798553D01*
X156328315Y-92756159D01*
X156337000Y-92710000D01*
X156337000Y-88900000D01*
X156326994Y-88850590D01*
X156298553Y-88808965D01*
X156256159Y-88781685D01*
X156210000Y-88773000D01*
X148082000Y-88773000D01*
X148082000Y-86194578D01*
X161452159Y-86194578D01*
X161723054Y-86785703D01*
X162199542Y-87228164D01*
X162688122Y-87430541D01*
X162946500Y-87311604D01*
X162946500Y-85936200D01*
X163200500Y-85936200D01*
X163200500Y-87311604D01*
X163458878Y-87430541D01*
X164050003Y-87159646D01*
X164492464Y-86683158D01*
X164694841Y-86194578D01*
X164575904Y-85936200D01*
X163200500Y-85936200D01*
X162946500Y-85936200D01*
X161571096Y-85936200D01*
X161452159Y-86194578D01*
X148082000Y-86194578D01*
X148082000Y-85423822D01*
X161452159Y-85423822D01*
X161571096Y-85682200D01*
X162946500Y-85682200D01*
X162946500Y-84306796D01*
X163200500Y-84306796D01*
X163200500Y-85682200D01*
X164575904Y-85682200D01*
X164694841Y-85423822D01*
X164423946Y-84832697D01*
X163947458Y-84390236D01*
X163458878Y-84187859D01*
X163200500Y-84306796D01*
X162946500Y-84306796D01*
X162688122Y-84187859D01*
X162096997Y-84458754D01*
X161654536Y-84935242D01*
X161452159Y-85423822D01*
X148082000Y-85423822D01*
X148082000Y-81248187D01*
X165471572Y-81248187D01*
X165704317Y-81735902D01*
X166105986Y-82097425D01*
X166472715Y-82249318D01*
X166686900Y-82126656D01*
X166686900Y-81034000D01*
X165593475Y-81034000D01*
X165471572Y-81248187D01*
X148082000Y-81248187D01*
X148082000Y-79831000D01*
X165978854Y-79831000D01*
X165704317Y-80078098D01*
X165704317Y-80078098D01*
G37*
X165704317Y-80078098D02*
X165471572Y-80565813D01*
X165593475Y-80780000D01*
X166686900Y-80780000D01*
X166686900Y-80760000D01*
X166940900Y-80760000D01*
X166940900Y-80780000D01*
X166960900Y-80780000D01*
X166960900Y-81034000D01*
X166940900Y-81034000D01*
X166940900Y-82126656D01*
X167155085Y-82249318D01*
X167513000Y-82101076D01*
X167513000Y-88773000D01*
X158750000Y-88773000D01*
X158700590Y-88783006D01*
X158658965Y-88811447D01*
X158631685Y-88853841D01*
X158623000Y-88900000D01*
X158623000Y-92710000D01*
X158633006Y-92759410D01*
X158661447Y-92801035D01*
X158703841Y-92828315D01*
X158750000Y-92837000D01*
X167514388Y-92837000D01*
X167587797Y-99517200D01*
X163713785Y-99517200D01*
X163900441Y-99397090D01*
X164045431Y-99184890D01*
X164096440Y-98933000D01*
X164096440Y-96901000D01*
X164052162Y-96665683D01*
X163913090Y-96449559D01*
X163700890Y-96304569D01*
X163449000Y-96253560D01*
X161417000Y-96253560D01*
X161181683Y-96297838D01*
X160965559Y-96436910D01*
X160854160Y-96599948D01*
X160757818Y-96510615D01*
X160275944Y-96311025D01*
X160020000Y-96430164D01*
X160020000Y-97790000D01*
X160040000Y-97790000D01*
X160040000Y-98044000D01*
X160020000Y-98044000D01*
X160020000Y-98064000D01*
X159766000Y-98064000D01*
X159766000Y-98044000D01*
X158405633Y-98044000D01*
X158287017Y-98299946D01*
X158555812Y-98885379D01*
X159028182Y-99323385D01*
X159496113Y-99517200D01*
X148766412Y-99517200D01*
X148744620Y-97534054D01*
X158287017Y-97534054D01*
X158405633Y-97790000D01*
X159766000Y-97790000D01*
X159766000Y-96430164D01*
X159510056Y-96311025D01*
X159028182Y-96510615D01*
X158555812Y-96948621D01*
X158287017Y-97534054D01*
X148744620Y-97534054D01*
X148693003Y-92837000D01*
X156210000Y-92837000D01*
X156259410Y-92826994D01*
X156301035Y-92798553D01*
X156328315Y-92756159D01*
X156337000Y-92710000D01*
X156337000Y-88900000D01*
X156326994Y-88850590D01*
X156298553Y-88808965D01*
X156256159Y-88781685D01*
X156210000Y-88773000D01*
X148082000Y-88773000D01*
X148082000Y-86194578D01*
X161452159Y-86194578D01*
X161723054Y-86785703D01*
X162199542Y-87228164D01*
X162688122Y-87430541D01*
X162946500Y-87311604D01*
X162946500Y-85936200D01*
X163200500Y-85936200D01*
X163200500Y-87311604D01*
X163458878Y-87430541D01*
X164050003Y-87159646D01*
X164492464Y-86683158D01*
X164694841Y-86194578D01*
X164575904Y-85936200D01*
X163200500Y-85936200D01*
X162946500Y-85936200D01*
X161571096Y-85936200D01*
X161452159Y-86194578D01*
X148082000Y-86194578D01*
X148082000Y-85423822D01*
X161452159Y-85423822D01*
X161571096Y-85682200D01*
X162946500Y-85682200D01*
X162946500Y-84306796D01*
X163200500Y-84306796D01*
X163200500Y-85682200D01*
X164575904Y-85682200D01*
X164694841Y-85423822D01*
X164423946Y-84832697D01*
X163947458Y-84390236D01*
X163458878Y-84187859D01*
X163200500Y-84306796D01*
X162946500Y-84306796D01*
X162688122Y-84187859D01*
X162096997Y-84458754D01*
X161654536Y-84935242D01*
X161452159Y-85423822D01*
X148082000Y-85423822D01*
X148082000Y-81248187D01*
X165471572Y-81248187D01*
X165704317Y-81735902D01*
X166105986Y-82097425D01*
X166472715Y-82249318D01*
X166686900Y-82126656D01*
X166686900Y-81034000D01*
X165593475Y-81034000D01*
X165471572Y-81248187D01*
X148082000Y-81248187D01*
X148082000Y-79831000D01*
X165978854Y-79831000D01*
X165704317Y-80078098D01*
G36*
X175058000Y-91567000D02*
X171084693Y-91567000D01*
X170584252Y-91359199D01*
X169934011Y-91358631D01*
X169429719Y-91567000D01*
X159385000Y-91567000D01*
X159385000Y-89535000D01*
X168148000Y-89535000D01*
X168197410Y-89524994D01*
X168239035Y-89496553D01*
X168266315Y-89454159D01*
X168275000Y-89408000D01*
X168275000Y-82292000D01*
X168528150Y-82292000D01*
X168686900Y-82133250D01*
X168686900Y-81034000D01*
X168940900Y-81034000D01*
X168940900Y-82133250D01*
X169099650Y-82292000D01*
X169690210Y-82292000D01*
X169923599Y-82195327D01*
X170102227Y-82016698D01*
X170198900Y-81783309D01*
X170198900Y-81192750D01*
X170040150Y-81034000D01*
X168940900Y-81034000D01*
X168686900Y-81034000D01*
X168666900Y-81034000D01*
X168666900Y-80780000D01*
X168686900Y-80780000D01*
X168686900Y-80760000D01*
X168940900Y-80760000D01*
X168940900Y-80780000D01*
X170040150Y-80780000D01*
X170198900Y-80621250D01*
X170198900Y-80030691D01*
X170116185Y-79831000D01*
X175058000Y-79831000D01*
X175058000Y-91567000D01*
X175058000Y-91567000D01*
G37*
X175058000Y-91567000D02*
X171084693Y-91567000D01*
X170584252Y-91359199D01*
X169934011Y-91358631D01*
X169429719Y-91567000D01*
X159385000Y-91567000D01*
X159385000Y-89535000D01*
X168148000Y-89535000D01*
X168197410Y-89524994D01*
X168239035Y-89496553D01*
X168266315Y-89454159D01*
X168275000Y-89408000D01*
X168275000Y-82292000D01*
X168528150Y-82292000D01*
X168686900Y-82133250D01*
X168686900Y-81034000D01*
X168940900Y-81034000D01*
X168940900Y-82133250D01*
X169099650Y-82292000D01*
X169690210Y-82292000D01*
X169923599Y-82195327D01*
X170102227Y-82016698D01*
X170198900Y-81783309D01*
X170198900Y-81192750D01*
X170040150Y-81034000D01*
X168940900Y-81034000D01*
X168686900Y-81034000D01*
X168666900Y-81034000D01*
X168666900Y-80780000D01*
X168686900Y-80780000D01*
X168686900Y-80760000D01*
X168940900Y-80760000D01*
X168940900Y-80780000D01*
X170040150Y-80780000D01*
X170198900Y-80621250D01*
X170198900Y-80030691D01*
X170116185Y-79831000D01*
X175058000Y-79831000D01*
X175058000Y-91567000D01*
M02*
