G04 #@! TF.FileFunction,Legend,Top*
%FSLAX46Y46*%
G04 Gerber Fmt 4.6, Leading zero omitted, Abs format (unit mm)*
G04 Created by KiCad (PCBNEW 4.0.2-4+6225~38~ubuntu14.04.1-stable) date Sat 05 Mar 2016 03:44:27 PM PST*
%MOMM*%
G01*
G04 APERTURE LIST*
%ADD10C,0.100000*%
%ADD11C,0.304800*%
%ADD12C,0.150000*%
%ADD13R,1.800000X2.000000*%
%ADD14R,0.800000X1.750000*%
%ADD15R,2.300000X2.300000*%
%ADD16C,2.000000*%
%ADD17R,2.400000X2.000000*%
%ADD18R,1.598880X1.598880*%
%ADD19R,1.900000X1.700000*%
%ADD20R,1.700000X1.900000*%
%ADD21R,1.800000X0.700000*%
%ADD22R,2.432000X2.432000*%
%ADD23O,2.432000X2.432000*%
%ADD24R,1.900000X1.900000*%
%ADD25O,1.900000X1.900000*%
%ADD26C,2.398980*%
G04 APERTURE END LIST*
D10*
D11*
X170455614Y-84355857D02*
X170955614Y-84355857D01*
X170955614Y-85141571D02*
X170955614Y-83641571D01*
X170241328Y-83641571D01*
X169669900Y-83641571D02*
X169669900Y-84855857D01*
X169598472Y-84998714D01*
X169527043Y-85070143D01*
X169384186Y-85141571D01*
X169098472Y-85141571D01*
X168955614Y-85070143D01*
X168884186Y-84998714D01*
X168812757Y-84855857D01*
X168812757Y-83641571D01*
X167384185Y-85141571D02*
X168098471Y-85141571D01*
X168098471Y-83641571D01*
X166169899Y-85141571D02*
X166884185Y-85141571D01*
X166884185Y-83641571D01*
X163669899Y-84998714D02*
X163741328Y-85070143D01*
X163955614Y-85141571D01*
X164098471Y-85141571D01*
X164312756Y-85070143D01*
X164455614Y-84927286D01*
X164527042Y-84784429D01*
X164598471Y-84498714D01*
X164598471Y-84284429D01*
X164527042Y-83998714D01*
X164455614Y-83855857D01*
X164312756Y-83713000D01*
X164098471Y-83641571D01*
X163955614Y-83641571D01*
X163741328Y-83713000D01*
X163669899Y-83784429D01*
X163027042Y-85141571D02*
X163027042Y-83641571D01*
X163027042Y-84355857D02*
X162169899Y-84355857D01*
X162169899Y-85141571D02*
X162169899Y-83641571D01*
X161527042Y-84713000D02*
X160812756Y-84713000D01*
X161669899Y-85141571D02*
X161169899Y-83641571D01*
X160669899Y-85141571D01*
X159312756Y-85141571D02*
X159812756Y-84427286D01*
X160169899Y-85141571D02*
X160169899Y-83641571D01*
X159598471Y-83641571D01*
X159455613Y-83713000D01*
X159384185Y-83784429D01*
X159312756Y-83927286D01*
X159312756Y-84141571D01*
X159384185Y-84284429D01*
X159455613Y-84355857D01*
X159598471Y-84427286D01*
X160169899Y-84427286D01*
X157884185Y-83713000D02*
X158027042Y-83641571D01*
X158241328Y-83641571D01*
X158455613Y-83713000D01*
X158598471Y-83855857D01*
X158669899Y-83998714D01*
X158741328Y-84284429D01*
X158741328Y-84498714D01*
X158669899Y-84784429D01*
X158598471Y-84927286D01*
X158455613Y-85070143D01*
X158241328Y-85141571D01*
X158098471Y-85141571D01*
X157884185Y-85070143D01*
X157812756Y-84998714D01*
X157812756Y-84498714D01*
X158098471Y-84498714D01*
X157169899Y-84355857D02*
X156669899Y-84355857D01*
X156455613Y-85141571D02*
X157169899Y-85141571D01*
X157169899Y-83641571D01*
X156455613Y-83641571D01*
X154741328Y-84713000D02*
X154027042Y-84713000D01*
X154884185Y-85141571D02*
X154384185Y-83641571D01*
X153884185Y-85141571D01*
X153384185Y-85141571D02*
X153384185Y-83641571D01*
X153384185Y-84355857D02*
X152527042Y-84355857D01*
X152527042Y-85141571D02*
X152527042Y-83641571D01*
X151812756Y-84355857D02*
X151312756Y-84355857D01*
X151098470Y-85141571D02*
X151812756Y-85141571D01*
X151812756Y-83641571D01*
X151098470Y-83641571D01*
X150527042Y-84713000D02*
X149812756Y-84713000D01*
X150669899Y-85141571D02*
X150169899Y-83641571D01*
X149669899Y-85141571D01*
X149169899Y-85141571D02*
X149169899Y-83641571D01*
X148812756Y-83641571D01*
X148598471Y-83713000D01*
X148455613Y-83855857D01*
X148384185Y-83998714D01*
X148312756Y-84284429D01*
X148312756Y-84498714D01*
X148384185Y-84784429D01*
X148455613Y-84927286D01*
X148598471Y-85070143D01*
X148812756Y-85141571D01*
X149169899Y-85141571D01*
D12*
X148574000Y-86605000D02*
X146574000Y-86605000D01*
X146574000Y-88655000D02*
X148574000Y-88655000D01*
X166894000Y-88655000D02*
X168894000Y-88655000D01*
X168894000Y-86605000D02*
X166894000Y-86605000D01*
X171501000Y-99175000D02*
X174201000Y-99175000D01*
X171501000Y-97675000D02*
X174201000Y-97675000D01*
X173001000Y-98575000D02*
X173001000Y-98325000D01*
X173001000Y-98325000D02*
X172851000Y-98475000D01*
X172751000Y-98075000D02*
X172751000Y-98775000D01*
X173101000Y-98425000D02*
X173451000Y-98425000D01*
X172751000Y-98425000D02*
X173101000Y-98075000D01*
X173101000Y-98075000D02*
X173101000Y-98775000D01*
X173101000Y-98775000D02*
X172751000Y-98425000D01*
X142570000Y-95770000D02*
X139870000Y-95770000D01*
X142570000Y-97270000D02*
X139870000Y-97270000D01*
X141070000Y-96370000D02*
X141070000Y-96620000D01*
X141070000Y-96620000D02*
X141220000Y-96470000D01*
X141320000Y-96870000D02*
X141320000Y-96170000D01*
X140970000Y-96520000D02*
X140620000Y-96520000D01*
X141320000Y-96520000D02*
X140970000Y-96870000D01*
X140970000Y-96870000D02*
X140970000Y-96170000D01*
X140970000Y-96170000D02*
X141320000Y-96520000D01*
X142570000Y-93230000D02*
X139870000Y-93230000D01*
X142570000Y-94730000D02*
X139870000Y-94730000D01*
X141070000Y-93830000D02*
X141070000Y-94080000D01*
X141070000Y-94080000D02*
X141220000Y-93930000D01*
X141320000Y-94330000D02*
X141320000Y-93630000D01*
X140970000Y-93980000D02*
X140620000Y-93980000D01*
X141320000Y-93980000D02*
X140970000Y-94330000D01*
X140970000Y-94330000D02*
X140970000Y-93630000D01*
X140970000Y-93630000D02*
X141320000Y-93980000D01*
X145450000Y-93105000D02*
X146650000Y-93105000D01*
X146650000Y-94855000D02*
X145450000Y-94855000D01*
X145450000Y-95645000D02*
X146650000Y-95645000D01*
X146650000Y-97395000D02*
X145450000Y-97395000D01*
X168035000Y-97628000D02*
X168035000Y-96428000D01*
X169785000Y-96428000D02*
X169785000Y-97628000D01*
X165749000Y-97628000D02*
X165749000Y-96428000D01*
X167499000Y-96428000D02*
X167499000Y-97628000D01*
X162017000Y-95871000D02*
X160817000Y-95871000D01*
X160817000Y-94121000D02*
X162017000Y-94121000D01*
X139305000Y-87919000D02*
X139305000Y-89119000D01*
X137555000Y-89119000D02*
X137555000Y-87919000D01*
X141845000Y-87919000D02*
X141845000Y-89119000D01*
X140095000Y-89119000D02*
X140095000Y-87919000D01*
X144131000Y-87919000D02*
X144131000Y-89119000D01*
X142381000Y-89119000D02*
X142381000Y-87919000D01*
X155678000Y-90400000D02*
X155678000Y-90700000D01*
X159028000Y-90400000D02*
X159028000Y-90700000D01*
X159028000Y-93750000D02*
X159028000Y-93450000D01*
X155678000Y-93750000D02*
X155678000Y-93450000D01*
X155678000Y-90400000D02*
X159028000Y-90400000D01*
X155678000Y-93750000D02*
X159028000Y-93750000D01*
X155678000Y-90700000D02*
X154453000Y-90700000D01*
X161163000Y-99187000D02*
X158623000Y-99187000D01*
X163983000Y-99467000D02*
X162433000Y-99467000D01*
X161163000Y-99187000D02*
X161163000Y-96647000D01*
X162433000Y-96367000D02*
X163983000Y-96367000D01*
X163983000Y-96367000D02*
X163983000Y-99467000D01*
X161163000Y-96647000D02*
X158623000Y-96647000D01*
X158623000Y-96647000D02*
X158623000Y-99187000D01*
X165767577Y-86707226D02*
X169359679Y-90299328D01*
X169359679Y-90299328D02*
X167563628Y-92095379D01*
X167563628Y-92095379D02*
X163971526Y-88503277D01*
X163971526Y-88503277D02*
X165767577Y-86707226D01*
X164869551Y-87605251D02*
X163971526Y-86707226D01*
X168461654Y-91197354D02*
X169359679Y-92095379D01*
X147540024Y-80648181D02*
X147540024Y-79648181D01*
X147920977Y-79648181D01*
X148016215Y-79695800D01*
X148063834Y-79743419D01*
X148111453Y-79838657D01*
X148111453Y-79981514D01*
X148063834Y-80076752D01*
X148016215Y-80124371D01*
X147920977Y-80171990D01*
X147540024Y-80171990D01*
X149063834Y-80648181D02*
X148492405Y-80648181D01*
X148778119Y-80648181D02*
X148778119Y-79648181D01*
X148682881Y-79791038D01*
X148587643Y-79886276D01*
X148492405Y-79933895D01*
X149682881Y-79648181D02*
X149778120Y-79648181D01*
X149873358Y-79695800D01*
X149920977Y-79743419D01*
X149968596Y-79838657D01*
X150016215Y-80029133D01*
X150016215Y-80267229D01*
X149968596Y-80457705D01*
X149920977Y-80552943D01*
X149873358Y-80600562D01*
X149778120Y-80648181D01*
X149682881Y-80648181D01*
X149587643Y-80600562D01*
X149540024Y-80552943D01*
X149492405Y-80457705D01*
X149444786Y-80267229D01*
X149444786Y-80029133D01*
X149492405Y-79838657D01*
X149540024Y-79743419D01*
X149587643Y-79695800D01*
X149682881Y-79648181D01*
X150968596Y-80648181D02*
X150397167Y-80648181D01*
X150682881Y-80648181D02*
X150682881Y-79648181D01*
X150587643Y-79791038D01*
X150492405Y-79886276D01*
X150397167Y-79933895D01*
X146384253Y-86267943D02*
X146336634Y-86315562D01*
X146193777Y-86363181D01*
X146098539Y-86363181D01*
X145955681Y-86315562D01*
X145860443Y-86220324D01*
X145812824Y-86125086D01*
X145765205Y-85934610D01*
X145765205Y-85791752D01*
X145812824Y-85601276D01*
X145860443Y-85506038D01*
X145955681Y-85410800D01*
X146098539Y-85363181D01*
X146193777Y-85363181D01*
X146336634Y-85410800D01*
X146384253Y-85458419D01*
X147336634Y-86363181D02*
X146765205Y-86363181D01*
X147050919Y-86363181D02*
X147050919Y-85363181D01*
X146955681Y-85506038D01*
X146860443Y-85601276D01*
X146765205Y-85648895D01*
X147955681Y-85363181D02*
X148050920Y-85363181D01*
X148146158Y-85410800D01*
X148193777Y-85458419D01*
X148241396Y-85553657D01*
X148289015Y-85744133D01*
X148289015Y-85982229D01*
X148241396Y-86172705D01*
X148193777Y-86267943D01*
X148146158Y-86315562D01*
X148050920Y-86363181D01*
X147955681Y-86363181D01*
X147860443Y-86315562D01*
X147812824Y-86267943D01*
X147765205Y-86172705D01*
X147717586Y-85982229D01*
X147717586Y-85744133D01*
X147765205Y-85553657D01*
X147812824Y-85458419D01*
X147860443Y-85410800D01*
X147955681Y-85363181D01*
X149241396Y-86363181D02*
X148669967Y-86363181D01*
X148955681Y-86363181D02*
X148955681Y-85363181D01*
X148860443Y-85506038D01*
X148765205Y-85601276D01*
X148669967Y-85648895D01*
X171911253Y-88020543D02*
X171863634Y-88068162D01*
X171720777Y-88115781D01*
X171625539Y-88115781D01*
X171482681Y-88068162D01*
X171387443Y-87972924D01*
X171339824Y-87877686D01*
X171292205Y-87687210D01*
X171292205Y-87544352D01*
X171339824Y-87353876D01*
X171387443Y-87258638D01*
X171482681Y-87163400D01*
X171625539Y-87115781D01*
X171720777Y-87115781D01*
X171863634Y-87163400D01*
X171911253Y-87211019D01*
X172863634Y-88115781D02*
X172292205Y-88115781D01*
X172577919Y-88115781D02*
X172577919Y-87115781D01*
X172482681Y-87258638D01*
X172387443Y-87353876D01*
X172292205Y-87401495D01*
X173482681Y-87115781D02*
X173577920Y-87115781D01*
X173673158Y-87163400D01*
X173720777Y-87211019D01*
X173768396Y-87306257D01*
X173816015Y-87496733D01*
X173816015Y-87734829D01*
X173768396Y-87925305D01*
X173720777Y-88020543D01*
X173673158Y-88068162D01*
X173577920Y-88115781D01*
X173482681Y-88115781D01*
X173387443Y-88068162D01*
X173339824Y-88020543D01*
X173292205Y-87925305D01*
X173244586Y-87734829D01*
X173244586Y-87496733D01*
X173292205Y-87306257D01*
X173339824Y-87211019D01*
X173387443Y-87163400D01*
X173482681Y-87115781D01*
X174196967Y-87211019D02*
X174244586Y-87163400D01*
X174339824Y-87115781D01*
X174577920Y-87115781D01*
X174673158Y-87163400D01*
X174720777Y-87211019D01*
X174768396Y-87306257D01*
X174768396Y-87401495D01*
X174720777Y-87544352D01*
X174149348Y-88115781D01*
X174768396Y-88115781D01*
X171410524Y-97127381D02*
X171410524Y-96127381D01*
X171648619Y-96127381D01*
X171791477Y-96175000D01*
X171886715Y-96270238D01*
X171934334Y-96365476D01*
X171981953Y-96555952D01*
X171981953Y-96698810D01*
X171934334Y-96889286D01*
X171886715Y-96984524D01*
X171791477Y-97079762D01*
X171648619Y-97127381D01*
X171410524Y-97127381D01*
X172934334Y-97127381D02*
X172362905Y-97127381D01*
X172648619Y-97127381D02*
X172648619Y-96127381D01*
X172553381Y-96270238D01*
X172458143Y-96365476D01*
X172362905Y-96413095D01*
X173553381Y-96127381D02*
X173648620Y-96127381D01*
X173743858Y-96175000D01*
X173791477Y-96222619D01*
X173839096Y-96317857D01*
X173886715Y-96508333D01*
X173886715Y-96746429D01*
X173839096Y-96936905D01*
X173791477Y-97032143D01*
X173743858Y-97079762D01*
X173648620Y-97127381D01*
X173553381Y-97127381D01*
X173458143Y-97079762D01*
X173410524Y-97032143D01*
X173362905Y-96936905D01*
X173315286Y-96746429D01*
X173315286Y-96508333D01*
X173362905Y-96317857D01*
X173410524Y-96222619D01*
X173458143Y-96175000D01*
X173553381Y-96127381D01*
X174839096Y-97127381D02*
X174267667Y-97127381D01*
X174553381Y-97127381D02*
X174553381Y-96127381D01*
X174458143Y-96270238D01*
X174362905Y-96365476D01*
X174267667Y-96413095D01*
X139234224Y-98453581D02*
X139234224Y-97453581D01*
X139472319Y-97453581D01*
X139615177Y-97501200D01*
X139710415Y-97596438D01*
X139758034Y-97691676D01*
X139805653Y-97882152D01*
X139805653Y-98025010D01*
X139758034Y-98215486D01*
X139710415Y-98310724D01*
X139615177Y-98405962D01*
X139472319Y-98453581D01*
X139234224Y-98453581D01*
X140758034Y-98453581D02*
X140186605Y-98453581D01*
X140472319Y-98453581D02*
X140472319Y-97453581D01*
X140377081Y-97596438D01*
X140281843Y-97691676D01*
X140186605Y-97739295D01*
X141377081Y-97453581D02*
X141472320Y-97453581D01*
X141567558Y-97501200D01*
X141615177Y-97548819D01*
X141662796Y-97644057D01*
X141710415Y-97834533D01*
X141710415Y-98072629D01*
X141662796Y-98263105D01*
X141615177Y-98358343D01*
X141567558Y-98405962D01*
X141472320Y-98453581D01*
X141377081Y-98453581D01*
X141281843Y-98405962D01*
X141234224Y-98358343D01*
X141186605Y-98263105D01*
X141138986Y-98072629D01*
X141138986Y-97834533D01*
X141186605Y-97644057D01*
X141234224Y-97548819D01*
X141281843Y-97501200D01*
X141377081Y-97453581D01*
X142091367Y-97548819D02*
X142138986Y-97501200D01*
X142234224Y-97453581D01*
X142472320Y-97453581D01*
X142567558Y-97501200D01*
X142615177Y-97548819D01*
X142662796Y-97644057D01*
X142662796Y-97739295D01*
X142615177Y-97882152D01*
X142043748Y-98453581D01*
X142662796Y-98453581D01*
X139279524Y-92654381D02*
X139279524Y-91654381D01*
X139517619Y-91654381D01*
X139660477Y-91702000D01*
X139755715Y-91797238D01*
X139803334Y-91892476D01*
X139850953Y-92082952D01*
X139850953Y-92225810D01*
X139803334Y-92416286D01*
X139755715Y-92511524D01*
X139660477Y-92606762D01*
X139517619Y-92654381D01*
X139279524Y-92654381D01*
X140803334Y-92654381D02*
X140231905Y-92654381D01*
X140517619Y-92654381D02*
X140517619Y-91654381D01*
X140422381Y-91797238D01*
X140327143Y-91892476D01*
X140231905Y-91940095D01*
X141422381Y-91654381D02*
X141517620Y-91654381D01*
X141612858Y-91702000D01*
X141660477Y-91749619D01*
X141708096Y-91844857D01*
X141755715Y-92035333D01*
X141755715Y-92273429D01*
X141708096Y-92463905D01*
X141660477Y-92559143D01*
X141612858Y-92606762D01*
X141517620Y-92654381D01*
X141422381Y-92654381D01*
X141327143Y-92606762D01*
X141279524Y-92559143D01*
X141231905Y-92463905D01*
X141184286Y-92273429D01*
X141184286Y-92035333D01*
X141231905Y-91844857D01*
X141279524Y-91749619D01*
X141327143Y-91702000D01*
X141422381Y-91654381D01*
X142089048Y-91654381D02*
X142708096Y-91654381D01*
X142374762Y-92035333D01*
X142517620Y-92035333D01*
X142612858Y-92082952D01*
X142660477Y-92130571D01*
X142708096Y-92225810D01*
X142708096Y-92463905D01*
X142660477Y-92559143D01*
X142612858Y-92606762D01*
X142517620Y-92654381D01*
X142231905Y-92654381D01*
X142136667Y-92606762D01*
X142089048Y-92559143D01*
X145184953Y-92654381D02*
X144851619Y-92178190D01*
X144613524Y-92654381D02*
X144613524Y-91654381D01*
X144994477Y-91654381D01*
X145089715Y-91702000D01*
X145137334Y-91749619D01*
X145184953Y-91844857D01*
X145184953Y-91987714D01*
X145137334Y-92082952D01*
X145089715Y-92130571D01*
X144994477Y-92178190D01*
X144613524Y-92178190D01*
X146137334Y-92654381D02*
X145565905Y-92654381D01*
X145851619Y-92654381D02*
X145851619Y-91654381D01*
X145756381Y-91797238D01*
X145661143Y-91892476D01*
X145565905Y-91940095D01*
X146756381Y-91654381D02*
X146851620Y-91654381D01*
X146946858Y-91702000D01*
X146994477Y-91749619D01*
X147042096Y-91844857D01*
X147089715Y-92035333D01*
X147089715Y-92273429D01*
X147042096Y-92463905D01*
X146994477Y-92559143D01*
X146946858Y-92606762D01*
X146851620Y-92654381D01*
X146756381Y-92654381D01*
X146661143Y-92606762D01*
X146613524Y-92559143D01*
X146565905Y-92463905D01*
X146518286Y-92273429D01*
X146518286Y-92035333D01*
X146565905Y-91844857D01*
X146613524Y-91749619D01*
X146661143Y-91702000D01*
X146756381Y-91654381D01*
X148042096Y-92654381D02*
X147470667Y-92654381D01*
X147756381Y-92654381D02*
X147756381Y-91654381D01*
X147661143Y-91797238D01*
X147565905Y-91892476D01*
X147470667Y-91940095D01*
X145063453Y-98605981D02*
X144730119Y-98129790D01*
X144492024Y-98605981D02*
X144492024Y-97605981D01*
X144872977Y-97605981D01*
X144968215Y-97653600D01*
X145015834Y-97701219D01*
X145063453Y-97796457D01*
X145063453Y-97939314D01*
X145015834Y-98034552D01*
X144968215Y-98082171D01*
X144872977Y-98129790D01*
X144492024Y-98129790D01*
X146015834Y-98605981D02*
X145444405Y-98605981D01*
X145730119Y-98605981D02*
X145730119Y-97605981D01*
X145634881Y-97748838D01*
X145539643Y-97844076D01*
X145444405Y-97891695D01*
X146634881Y-97605981D02*
X146730120Y-97605981D01*
X146825358Y-97653600D01*
X146872977Y-97701219D01*
X146920596Y-97796457D01*
X146968215Y-97986933D01*
X146968215Y-98225029D01*
X146920596Y-98415505D01*
X146872977Y-98510743D01*
X146825358Y-98558362D01*
X146730120Y-98605981D01*
X146634881Y-98605981D01*
X146539643Y-98558362D01*
X146492024Y-98510743D01*
X146444405Y-98415505D01*
X146396786Y-98225029D01*
X146396786Y-97986933D01*
X146444405Y-97796457D01*
X146492024Y-97701219D01*
X146539643Y-97653600D01*
X146634881Y-97605981D01*
X147349167Y-97701219D02*
X147396786Y-97653600D01*
X147492024Y-97605981D01*
X147730120Y-97605981D01*
X147825358Y-97653600D01*
X147872977Y-97701219D01*
X147920596Y-97796457D01*
X147920596Y-97891695D01*
X147872977Y-98034552D01*
X147301548Y-98605981D01*
X147920596Y-98605981D01*
X171462381Y-98147047D02*
X170986190Y-98480381D01*
X171462381Y-98718476D02*
X170462381Y-98718476D01*
X170462381Y-98337523D01*
X170510000Y-98242285D01*
X170557619Y-98194666D01*
X170652857Y-98147047D01*
X170795714Y-98147047D01*
X170890952Y-98194666D01*
X170938571Y-98242285D01*
X170986190Y-98337523D01*
X170986190Y-98718476D01*
X171462381Y-97194666D02*
X171462381Y-97766095D01*
X171462381Y-97480381D02*
X170462381Y-97480381D01*
X170605238Y-97575619D01*
X170700476Y-97670857D01*
X170748095Y-97766095D01*
X170462381Y-96575619D02*
X170462381Y-96480380D01*
X170510000Y-96385142D01*
X170557619Y-96337523D01*
X170652857Y-96289904D01*
X170843333Y-96242285D01*
X171081429Y-96242285D01*
X171271905Y-96289904D01*
X171367143Y-96337523D01*
X171414762Y-96385142D01*
X171462381Y-96480380D01*
X171462381Y-96575619D01*
X171414762Y-96670857D01*
X171367143Y-96718476D01*
X171271905Y-96766095D01*
X171081429Y-96813714D01*
X170843333Y-96813714D01*
X170652857Y-96766095D01*
X170557619Y-96718476D01*
X170510000Y-96670857D01*
X170462381Y-96575619D01*
X170462381Y-95908952D02*
X170462381Y-95289904D01*
X170843333Y-95623238D01*
X170843333Y-95480380D01*
X170890952Y-95385142D01*
X170938571Y-95337523D01*
X171033810Y-95289904D01*
X171271905Y-95289904D01*
X171367143Y-95337523D01*
X171414762Y-95385142D01*
X171462381Y-95480380D01*
X171462381Y-95766095D01*
X171414762Y-95861333D01*
X171367143Y-95908952D01*
X165552381Y-98401047D02*
X165076190Y-98734381D01*
X165552381Y-98972476D02*
X164552381Y-98972476D01*
X164552381Y-98591523D01*
X164600000Y-98496285D01*
X164647619Y-98448666D01*
X164742857Y-98401047D01*
X164885714Y-98401047D01*
X164980952Y-98448666D01*
X165028571Y-98496285D01*
X165076190Y-98591523D01*
X165076190Y-98972476D01*
X165552381Y-97448666D02*
X165552381Y-98020095D01*
X165552381Y-97734381D02*
X164552381Y-97734381D01*
X164695238Y-97829619D01*
X164790476Y-97924857D01*
X164838095Y-98020095D01*
X164552381Y-96829619D02*
X164552381Y-96734380D01*
X164600000Y-96639142D01*
X164647619Y-96591523D01*
X164742857Y-96543904D01*
X164933333Y-96496285D01*
X165171429Y-96496285D01*
X165361905Y-96543904D01*
X165457143Y-96591523D01*
X165504762Y-96639142D01*
X165552381Y-96734380D01*
X165552381Y-96829619D01*
X165504762Y-96924857D01*
X165457143Y-96972476D01*
X165361905Y-97020095D01*
X165171429Y-97067714D01*
X164933333Y-97067714D01*
X164742857Y-97020095D01*
X164647619Y-96972476D01*
X164600000Y-96924857D01*
X164552381Y-96829619D01*
X164885714Y-95639142D02*
X165552381Y-95639142D01*
X164504762Y-95877238D02*
X165219048Y-96115333D01*
X165219048Y-95496285D01*
X160297953Y-93348381D02*
X159964619Y-92872190D01*
X159726524Y-93348381D02*
X159726524Y-92348381D01*
X160107477Y-92348381D01*
X160202715Y-92396000D01*
X160250334Y-92443619D01*
X160297953Y-92538857D01*
X160297953Y-92681714D01*
X160250334Y-92776952D01*
X160202715Y-92824571D01*
X160107477Y-92872190D01*
X159726524Y-92872190D01*
X161250334Y-93348381D02*
X160678905Y-93348381D01*
X160964619Y-93348381D02*
X160964619Y-92348381D01*
X160869381Y-92491238D01*
X160774143Y-92586476D01*
X160678905Y-92634095D01*
X161869381Y-92348381D02*
X161964620Y-92348381D01*
X162059858Y-92396000D01*
X162107477Y-92443619D01*
X162155096Y-92538857D01*
X162202715Y-92729333D01*
X162202715Y-92967429D01*
X162155096Y-93157905D01*
X162107477Y-93253143D01*
X162059858Y-93300762D01*
X161964620Y-93348381D01*
X161869381Y-93348381D01*
X161774143Y-93300762D01*
X161726524Y-93253143D01*
X161678905Y-93157905D01*
X161631286Y-92967429D01*
X161631286Y-92729333D01*
X161678905Y-92538857D01*
X161726524Y-92443619D01*
X161774143Y-92396000D01*
X161869381Y-92348381D01*
X163059858Y-92348381D02*
X162869381Y-92348381D01*
X162774143Y-92396000D01*
X162726524Y-92443619D01*
X162631286Y-92586476D01*
X162583667Y-92776952D01*
X162583667Y-93157905D01*
X162631286Y-93253143D01*
X162678905Y-93300762D01*
X162774143Y-93348381D01*
X162964620Y-93348381D01*
X163059858Y-93300762D01*
X163107477Y-93253143D01*
X163155096Y-93157905D01*
X163155096Y-92919810D01*
X163107477Y-92824571D01*
X163059858Y-92776952D01*
X162964620Y-92729333D01*
X162774143Y-92729333D01*
X162678905Y-92776952D01*
X162631286Y-92824571D01*
X162583667Y-92919810D01*
X137443453Y-86007581D02*
X137110119Y-85531390D01*
X136872024Y-86007581D02*
X136872024Y-85007581D01*
X137252977Y-85007581D01*
X137348215Y-85055200D01*
X137395834Y-85102819D01*
X137443453Y-85198057D01*
X137443453Y-85340914D01*
X137395834Y-85436152D01*
X137348215Y-85483771D01*
X137252977Y-85531390D01*
X136872024Y-85531390D01*
X138395834Y-86007581D02*
X137824405Y-86007581D01*
X138110119Y-86007581D02*
X138110119Y-85007581D01*
X138014881Y-85150438D01*
X137919643Y-85245676D01*
X137824405Y-85293295D01*
X139014881Y-85007581D02*
X139110120Y-85007581D01*
X139205358Y-85055200D01*
X139252977Y-85102819D01*
X139300596Y-85198057D01*
X139348215Y-85388533D01*
X139348215Y-85626629D01*
X139300596Y-85817105D01*
X139252977Y-85912343D01*
X139205358Y-85959962D01*
X139110120Y-86007581D01*
X139014881Y-86007581D01*
X138919643Y-85959962D01*
X138872024Y-85912343D01*
X138824405Y-85817105D01*
X138776786Y-85626629D01*
X138776786Y-85388533D01*
X138824405Y-85198057D01*
X138872024Y-85102819D01*
X138919643Y-85055200D01*
X139014881Y-85007581D01*
X139681548Y-85007581D02*
X140348215Y-85007581D01*
X139919643Y-86007581D01*
X141532853Y-85931381D02*
X141199519Y-85455190D01*
X140961424Y-85931381D02*
X140961424Y-84931381D01*
X141342377Y-84931381D01*
X141437615Y-84979000D01*
X141485234Y-85026619D01*
X141532853Y-85121857D01*
X141532853Y-85264714D01*
X141485234Y-85359952D01*
X141437615Y-85407571D01*
X141342377Y-85455190D01*
X140961424Y-85455190D01*
X142485234Y-85931381D02*
X141913805Y-85931381D01*
X142199519Y-85931381D02*
X142199519Y-84931381D01*
X142104281Y-85074238D01*
X142009043Y-85169476D01*
X141913805Y-85217095D01*
X143104281Y-84931381D02*
X143199520Y-84931381D01*
X143294758Y-84979000D01*
X143342377Y-85026619D01*
X143389996Y-85121857D01*
X143437615Y-85312333D01*
X143437615Y-85550429D01*
X143389996Y-85740905D01*
X143342377Y-85836143D01*
X143294758Y-85883762D01*
X143199520Y-85931381D01*
X143104281Y-85931381D01*
X143009043Y-85883762D01*
X142961424Y-85836143D01*
X142913805Y-85740905D01*
X142866186Y-85550429D01*
X142866186Y-85312333D01*
X142913805Y-85121857D01*
X142961424Y-85026619D01*
X143009043Y-84979000D01*
X143104281Y-84931381D01*
X144009043Y-85359952D02*
X143913805Y-85312333D01*
X143866186Y-85264714D01*
X143818567Y-85169476D01*
X143818567Y-85121857D01*
X143866186Y-85026619D01*
X143913805Y-84979000D01*
X144009043Y-84931381D01*
X144199520Y-84931381D01*
X144294758Y-84979000D01*
X144342377Y-85026619D01*
X144389996Y-85121857D01*
X144389996Y-85169476D01*
X144342377Y-85264714D01*
X144294758Y-85312333D01*
X144199520Y-85359952D01*
X144009043Y-85359952D01*
X143913805Y-85407571D01*
X143866186Y-85455190D01*
X143818567Y-85550429D01*
X143818567Y-85740905D01*
X143866186Y-85836143D01*
X143913805Y-85883762D01*
X144009043Y-85931381D01*
X144199520Y-85931381D01*
X144294758Y-85883762D01*
X144342377Y-85836143D01*
X144389996Y-85740905D01*
X144389996Y-85550429D01*
X144342377Y-85455190D01*
X144294758Y-85407571D01*
X144199520Y-85359952D01*
X144911053Y-90884381D02*
X144577719Y-90408190D01*
X144339624Y-90884381D02*
X144339624Y-89884381D01*
X144720577Y-89884381D01*
X144815815Y-89932000D01*
X144863434Y-89979619D01*
X144911053Y-90074857D01*
X144911053Y-90217714D01*
X144863434Y-90312952D01*
X144815815Y-90360571D01*
X144720577Y-90408190D01*
X144339624Y-90408190D01*
X145863434Y-90884381D02*
X145292005Y-90884381D01*
X145577719Y-90884381D02*
X145577719Y-89884381D01*
X145482481Y-90027238D01*
X145387243Y-90122476D01*
X145292005Y-90170095D01*
X146482481Y-89884381D02*
X146577720Y-89884381D01*
X146672958Y-89932000D01*
X146720577Y-89979619D01*
X146768196Y-90074857D01*
X146815815Y-90265333D01*
X146815815Y-90503429D01*
X146768196Y-90693905D01*
X146720577Y-90789143D01*
X146672958Y-90836762D01*
X146577720Y-90884381D01*
X146482481Y-90884381D01*
X146387243Y-90836762D01*
X146339624Y-90789143D01*
X146292005Y-90693905D01*
X146244386Y-90503429D01*
X146244386Y-90265333D01*
X146292005Y-90074857D01*
X146339624Y-89979619D01*
X146387243Y-89932000D01*
X146482481Y-89884381D01*
X147292005Y-90884381D02*
X147482481Y-90884381D01*
X147577720Y-90836762D01*
X147625339Y-90789143D01*
X147720577Y-90646286D01*
X147768196Y-90455810D01*
X147768196Y-90074857D01*
X147720577Y-89979619D01*
X147672958Y-89932000D01*
X147577720Y-89884381D01*
X147387243Y-89884381D01*
X147292005Y-89932000D01*
X147244386Y-89979619D01*
X147196767Y-90074857D01*
X147196767Y-90312952D01*
X147244386Y-90408190D01*
X147292005Y-90455810D01*
X147387243Y-90503429D01*
X147577720Y-90503429D01*
X147672958Y-90455810D01*
X147720577Y-90408190D01*
X147768196Y-90312952D01*
X155638714Y-88927381D02*
X155638714Y-89736905D01*
X155686333Y-89832143D01*
X155733952Y-89879762D01*
X155829190Y-89927381D01*
X156019667Y-89927381D01*
X156114905Y-89879762D01*
X156162524Y-89832143D01*
X156210143Y-89736905D01*
X156210143Y-88927381D01*
X157210143Y-89927381D02*
X156638714Y-89927381D01*
X156924428Y-89927381D02*
X156924428Y-88927381D01*
X156829190Y-89070238D01*
X156733952Y-89165476D01*
X156638714Y-89213095D01*
X157829190Y-88927381D02*
X157924429Y-88927381D01*
X158019667Y-88975000D01*
X158067286Y-89022619D01*
X158114905Y-89117857D01*
X158162524Y-89308333D01*
X158162524Y-89546429D01*
X158114905Y-89736905D01*
X158067286Y-89832143D01*
X158019667Y-89879762D01*
X157924429Y-89927381D01*
X157829190Y-89927381D01*
X157733952Y-89879762D01*
X157686333Y-89832143D01*
X157638714Y-89736905D01*
X157591095Y-89546429D01*
X157591095Y-89308333D01*
X157638714Y-89117857D01*
X157686333Y-89022619D01*
X157733952Y-88975000D01*
X157829190Y-88927381D01*
X159114905Y-89927381D02*
X158543476Y-89927381D01*
X158829190Y-89927381D02*
X158829190Y-88927381D01*
X158733952Y-89070238D01*
X158638714Y-89165476D01*
X158543476Y-89213095D01*
X159726524Y-100401381D02*
X159726524Y-99401381D01*
X160107477Y-99401381D01*
X160202715Y-99449000D01*
X160250334Y-99496619D01*
X160297953Y-99591857D01*
X160297953Y-99734714D01*
X160250334Y-99829952D01*
X160202715Y-99877571D01*
X160107477Y-99925190D01*
X159726524Y-99925190D01*
X161250334Y-100401381D02*
X160678905Y-100401381D01*
X160964619Y-100401381D02*
X160964619Y-99401381D01*
X160869381Y-99544238D01*
X160774143Y-99639476D01*
X160678905Y-99687095D01*
X161869381Y-99401381D02*
X161964620Y-99401381D01*
X162059858Y-99449000D01*
X162107477Y-99496619D01*
X162155096Y-99591857D01*
X162202715Y-99782333D01*
X162202715Y-100020429D01*
X162155096Y-100210905D01*
X162107477Y-100306143D01*
X162059858Y-100353762D01*
X161964620Y-100401381D01*
X161869381Y-100401381D01*
X161774143Y-100353762D01*
X161726524Y-100306143D01*
X161678905Y-100210905D01*
X161631286Y-100020429D01*
X161631286Y-99782333D01*
X161678905Y-99591857D01*
X161726524Y-99496619D01*
X161774143Y-99449000D01*
X161869381Y-99401381D01*
X162583667Y-99496619D02*
X162631286Y-99449000D01*
X162726524Y-99401381D01*
X162964620Y-99401381D01*
X163059858Y-99449000D01*
X163107477Y-99496619D01*
X163155096Y-99591857D01*
X163155096Y-99687095D01*
X163107477Y-99829952D01*
X162536048Y-100401381D01*
X163155096Y-100401381D01*
X171207932Y-91535396D02*
X171308947Y-90962975D01*
X170803870Y-91131335D02*
X171510977Y-90424228D01*
X171780352Y-90693602D01*
X171814023Y-90794617D01*
X171814023Y-90861961D01*
X171780352Y-90962976D01*
X171679336Y-91063991D01*
X171578321Y-91097663D01*
X171510978Y-91097663D01*
X171409963Y-91063991D01*
X171140588Y-90794617D01*
X171881367Y-92208831D02*
X171477305Y-91804770D01*
X171679336Y-92006800D02*
X172386442Y-91299693D01*
X172218084Y-91333365D01*
X172083397Y-91333365D01*
X171982382Y-91299693D01*
X173026206Y-91939457D02*
X173093550Y-92006801D01*
X173127222Y-92107816D01*
X173127222Y-92175159D01*
X173093550Y-92276174D01*
X172992535Y-92444533D01*
X172824175Y-92612892D01*
X172655817Y-92713907D01*
X172554802Y-92747579D01*
X172487458Y-92747579D01*
X172386443Y-92713907D01*
X172319099Y-92646563D01*
X172285427Y-92545548D01*
X172285427Y-92478205D01*
X172319099Y-92377190D01*
X172420114Y-92208831D01*
X172588473Y-92040472D01*
X172756832Y-91939457D01*
X172857847Y-91905785D01*
X172925191Y-91905785D01*
X173026206Y-91939457D01*
X173901672Y-92814923D02*
X173564954Y-92478205D01*
X173194565Y-92781250D01*
X173261909Y-92781250D01*
X173362924Y-92814922D01*
X173531283Y-92983281D01*
X173564955Y-93084296D01*
X173564955Y-93151640D01*
X173531282Y-93252656D01*
X173362924Y-93421014D01*
X173261909Y-93454686D01*
X173194565Y-93454686D01*
X173093550Y-93421014D01*
X172925191Y-93252655D01*
X172891519Y-93151640D01*
X172891519Y-93084296D01*
%LPC*%
D13*
X138786000Y-83476000D03*
D14*
X143286900Y-83701000D03*
X142636900Y-83701000D03*
X141986000Y-83701000D03*
X141336900Y-83701000D03*
X140686900Y-83701000D03*
D13*
X145186000Y-83476000D03*
D15*
X140786000Y-81026000D03*
X143186000Y-81026000D03*
D16*
X138686000Y-81026000D03*
X145286000Y-81026000D03*
D17*
X145574000Y-87630000D03*
X149574000Y-87630000D03*
X169894000Y-87630000D03*
X165894000Y-87630000D03*
D18*
X174150020Y-98425000D03*
X172051980Y-98425000D03*
X139920980Y-96520000D03*
X142019020Y-96520000D03*
X139920980Y-93980000D03*
X142019020Y-93980000D03*
D19*
X147400000Y-93980000D03*
X144700000Y-93980000D03*
X147400000Y-96520000D03*
X144700000Y-96520000D03*
D20*
X168910000Y-95678000D03*
X168910000Y-98378000D03*
X166624000Y-95678000D03*
X166624000Y-98378000D03*
D19*
X160067000Y-94996000D03*
X162767000Y-94996000D03*
D20*
X138430000Y-89869000D03*
X138430000Y-87169000D03*
X140970000Y-89869000D03*
X140970000Y-87169000D03*
X143256000Y-89869000D03*
X143256000Y-87169000D03*
D21*
X155153000Y-91075000D03*
X155153000Y-91575000D03*
X155153000Y-92075000D03*
X155153000Y-92575000D03*
X155153000Y-93075000D03*
X159553000Y-93075000D03*
X159553000Y-92575000D03*
X159553000Y-92075000D03*
X159553000Y-91575000D03*
X159553000Y-91075000D03*
D22*
X162433000Y-97917000D03*
D23*
X159893000Y-97917000D03*
D24*
X168813900Y-80907000D03*
D25*
X166813900Y-80907000D03*
D26*
X163073500Y-85809200D03*
X170257705Y-92993405D03*
M02*
