M48
;DRILL file {KiCad 4.0.2-4+6225~38~ubuntu14.04.1-stable} date Sat 05 Mar 2016 03:44:29 PM PST
;FORMAT={2:4/ absolute / inch / keep zeros}
FMAT,2
INCH,TZ
T1C0.013
T2C0.028
T3C0.039
T4C0.040
T5C0.045
T6C0.047
%
G90
G05
M72
T1
X057600Y-035400
X058000Y-036000
X058600Y-035400
X058800Y-032000
X058800Y-032800
X058800Y-033600
X059200Y-036000
X059400Y-037800
X059400Y-038600
X059600Y-032000
X059600Y-032800
X059600Y-033600
X059800Y-035400
X060000Y-034200
X060400Y-032000
X060400Y-032800
X060400Y-033600
X060400Y-036000
X060400Y-037200
X060400Y-037800
X060400Y-038600
X061200Y-032000
X061200Y-032800
X061200Y-033600
X061200Y-034400
X061200Y-037200
X061200Y-037800
X061200Y-038600
X062000Y-032000
X062000Y-032800
X062000Y-033600
X062000Y-034400
X062000Y-035400
X062000Y-036000
X062000Y-036600
X062000Y-037200
X062000Y-037800
X062000Y-038600
X062800Y-032000
X062800Y-032800
X062800Y-033600
X062800Y-034400
X063200Y-035600
X063332Y-033363
X063392Y-034603
X063600Y-032000
X063600Y-032800
X064000Y-035600
X064382Y-034693
X064400Y-032000
X064832Y-033073
X065000Y-035600
X065400Y-033600
X066000Y-035600
X066800Y-033400
X067000Y-035600
X067600Y-031600
X067600Y-032400
X067600Y-033400
X067800Y-034200
X067800Y-035000
X067800Y-035600
X068600Y-031600
X068600Y-032400
X068600Y-033400
X068600Y-034200
X068600Y-035000
X068600Y-035600
T2
X065675Y-031853
X066462Y-031853
T3
X064202Y-033783
X067031Y-036612
T4
X062950Y-038550
X063950Y-038550
T5
X054601Y-031900
T6
X057199Y-031900
T0
M30
